<mxfile host="app.diagrams.net" modified="2023-11-19T15:46:56.047Z" agent="Mozilla/5.0 (Macintosh; Intel Mac OS X 10_15_7) AppleWebKit/537.36 (KHTML, like Gecko) Chrome/119.0.0.0 Safari/537.36" etag="pGkH_QI3Zy1v_RUnji1C" version="22.1.3" type="google">
  <diagram name="Sayfa -1" id="GM_a__01CHMACgmnRu3G">
    <mxGraphModel grid="1" page="1" gridSize="10" guides="1" tooltips="1" connect="1" arrows="1" fold="1" pageScale="1" pageWidth="1169" pageHeight="1654" math="0" shadow="0">
      <root>
        <mxCell id="0" />
        <mxCell id="1" parent="0" />
        <mxCell id="o50DH5vK2s1su8xFmBfq-1" value="Agents" style="shape=table;startSize=30;container=1;collapsible=1;childLayout=tableLayout;fixedRows=1;rowLines=0;fontStyle=1;align=center;resizeLast=1;html=1;fillColor=#ffe6cc;strokeColor=#d79b00;" vertex="1" parent="1">
          <mxGeometry x="-1080" y="140" width="260" height="390" as="geometry" />
        </mxCell>
        <mxCell id="o50DH5vK2s1su8xFmBfq-2" value="" style="shape=tableRow;horizontal=0;startSize=0;swimlaneHead=0;swimlaneBody=0;fillColor=none;collapsible=0;dropTarget=0;points=[[0,0.5],[1,0.5]];portConstraint=eastwest;top=0;left=0;right=0;bottom=1;" vertex="1" parent="o50DH5vK2s1su8xFmBfq-1">
          <mxGeometry y="30" width="260" height="30" as="geometry" />
        </mxCell>
        <mxCell id="o50DH5vK2s1su8xFmBfq-3" value="PK" style="shape=partialRectangle;connectable=0;fillColor=none;top=0;left=0;bottom=0;right=0;fontStyle=1;overflow=hidden;whiteSpace=wrap;html=1;" vertex="1" parent="o50DH5vK2s1su8xFmBfq-2">
          <mxGeometry width="30" height="30" as="geometry">
            <mxRectangle width="30" height="30" as="alternateBounds" />
          </mxGeometry>
        </mxCell>
        <mxCell id="o50DH5vK2s1su8xFmBfq-4" value="_aID: string" style="shape=partialRectangle;connectable=0;fillColor=none;top=0;left=0;bottom=0;right=0;align=left;spacingLeft=6;fontStyle=5;overflow=hidden;whiteSpace=wrap;html=1;" vertex="1" parent="o50DH5vK2s1su8xFmBfq-2">
          <mxGeometry x="30" width="230" height="30" as="geometry">
            <mxRectangle width="230" height="30" as="alternateBounds" />
          </mxGeometry>
        </mxCell>
        <mxCell id="o50DH5vK2s1su8xFmBfq-5" value="" style="shape=tableRow;horizontal=0;startSize=0;swimlaneHead=0;swimlaneBody=0;fillColor=none;collapsible=0;dropTarget=0;points=[[0,0.5],[1,0.5]];portConstraint=eastwest;top=0;left=0;right=0;bottom=0;" vertex="1" parent="o50DH5vK2s1su8xFmBfq-1">
          <mxGeometry y="60" width="260" height="30" as="geometry" />
        </mxCell>
        <mxCell id="o50DH5vK2s1su8xFmBfq-6" value="" style="shape=partialRectangle;connectable=0;fillColor=none;top=0;left=0;bottom=0;right=0;editable=1;overflow=hidden;whiteSpace=wrap;html=1;" vertex="1" parent="o50DH5vK2s1su8xFmBfq-5">
          <mxGeometry width="30" height="30" as="geometry">
            <mxRectangle width="30" height="30" as="alternateBounds" />
          </mxGeometry>
        </mxCell>
        <mxCell id="o50DH5vK2s1su8xFmBfq-7" value="name: string NOT NULL" style="shape=partialRectangle;connectable=0;fillColor=none;top=0;left=0;bottom=0;right=0;align=left;spacingLeft=6;overflow=hidden;whiteSpace=wrap;html=1;" vertex="1" parent="o50DH5vK2s1su8xFmBfq-5">
          <mxGeometry x="30" width="230" height="30" as="geometry">
            <mxRectangle width="230" height="30" as="alternateBounds" />
          </mxGeometry>
        </mxCell>
        <mxCell id="o50DH5vK2s1su8xFmBfq-8" value="" style="shape=tableRow;horizontal=0;startSize=0;swimlaneHead=0;swimlaneBody=0;fillColor=none;collapsible=0;dropTarget=0;points=[[0,0.5],[1,0.5]];portConstraint=eastwest;top=0;left=0;right=0;bottom=0;" vertex="1" parent="o50DH5vK2s1su8xFmBfq-1">
          <mxGeometry y="90" width="260" height="30" as="geometry" />
        </mxCell>
        <mxCell id="o50DH5vK2s1su8xFmBfq-9" value="" style="shape=partialRectangle;connectable=0;fillColor=none;top=0;left=0;bottom=0;right=0;editable=1;overflow=hidden;whiteSpace=wrap;html=1;" vertex="1" parent="o50DH5vK2s1su8xFmBfq-8">
          <mxGeometry width="30" height="30" as="geometry">
            <mxRectangle width="30" height="30" as="alternateBounds" />
          </mxGeometry>
        </mxCell>
        <mxCell id="o50DH5vK2s1su8xFmBfq-10" value="&lt;font color=&quot;#ff0000&quot;&gt;contactPerson:Object //Fname,LName, TC, phone, picture&lt;/font&gt;" style="shape=partialRectangle;connectable=0;fillColor=none;top=0;left=0;bottom=0;right=0;align=left;spacingLeft=6;overflow=hidden;whiteSpace=wrap;html=1;" vertex="1" parent="o50DH5vK2s1su8xFmBfq-8">
          <mxGeometry x="30" width="230" height="30" as="geometry">
            <mxRectangle width="230" height="30" as="alternateBounds" />
          </mxGeometry>
        </mxCell>
        <mxCell id="o50DH5vK2s1su8xFmBfq-77" value="" style="shape=tableRow;horizontal=0;startSize=0;swimlaneHead=0;swimlaneBody=0;fillColor=none;collapsible=0;dropTarget=0;points=[[0,0.5],[1,0.5]];portConstraint=eastwest;top=0;left=0;right=0;bottom=0;" vertex="1" parent="o50DH5vK2s1su8xFmBfq-1">
          <mxGeometry y="120" width="260" height="30" as="geometry" />
        </mxCell>
        <mxCell id="o50DH5vK2s1su8xFmBfq-78" value="" style="shape=partialRectangle;connectable=0;fillColor=none;top=0;left=0;bottom=0;right=0;editable=1;overflow=hidden;whiteSpace=wrap;html=1;" vertex="1" parent="o50DH5vK2s1su8xFmBfq-77">
          <mxGeometry width="30" height="30" as="geometry">
            <mxRectangle width="30" height="30" as="alternateBounds" />
          </mxGeometry>
        </mxCell>
        <mxCell id="o50DH5vK2s1su8xFmBfq-79" value="logo:string //path to file" style="shape=partialRectangle;connectable=0;fillColor=none;top=0;left=0;bottom=0;right=0;align=left;spacingLeft=6;overflow=hidden;whiteSpace=wrap;html=1;" vertex="1" parent="o50DH5vK2s1su8xFmBfq-77">
          <mxGeometry x="30" width="230" height="30" as="geometry">
            <mxRectangle width="230" height="30" as="alternateBounds" />
          </mxGeometry>
        </mxCell>
        <mxCell id="o50DH5vK2s1su8xFmBfq-11" value="" style="shape=tableRow;horizontal=0;startSize=0;swimlaneHead=0;swimlaneBody=0;fillColor=none;collapsible=0;dropTarget=0;points=[[0,0.5],[1,0.5]];portConstraint=eastwest;top=0;left=0;right=0;bottom=0;" vertex="1" parent="o50DH5vK2s1su8xFmBfq-1">
          <mxGeometry y="150" width="260" height="30" as="geometry" />
        </mxCell>
        <mxCell id="o50DH5vK2s1su8xFmBfq-12" value="" style="shape=partialRectangle;connectable=0;fillColor=none;top=0;left=0;bottom=0;right=0;editable=1;overflow=hidden;whiteSpace=wrap;html=1;" vertex="1" parent="o50DH5vK2s1su8xFmBfq-11">
          <mxGeometry width="30" height="30" as="geometry">
            <mxRectangle width="30" height="30" as="alternateBounds" />
          </mxGeometry>
        </mxCell>
        <mxCell id="o50DH5vK2s1su8xFmBfq-13" value="address:string" style="shape=partialRectangle;connectable=0;fillColor=none;top=0;left=0;bottom=0;right=0;align=left;spacingLeft=6;overflow=hidden;whiteSpace=wrap;html=1;" vertex="1" parent="o50DH5vK2s1su8xFmBfq-11">
          <mxGeometry x="30" width="230" height="30" as="geometry">
            <mxRectangle width="230" height="30" as="alternateBounds" />
          </mxGeometry>
        </mxCell>
        <mxCell id="o50DH5vK2s1su8xFmBfq-71" value="" style="shape=tableRow;horizontal=0;startSize=0;swimlaneHead=0;swimlaneBody=0;fillColor=none;collapsible=0;dropTarget=0;points=[[0,0.5],[1,0.5]];portConstraint=eastwest;top=0;left=0;right=0;bottom=0;" vertex="1" parent="o50DH5vK2s1su8xFmBfq-1">
          <mxGeometry y="180" width="260" height="30" as="geometry" />
        </mxCell>
        <mxCell id="o50DH5vK2s1su8xFmBfq-72" value="" style="shape=partialRectangle;connectable=0;fillColor=none;top=0;left=0;bottom=0;right=0;editable=1;overflow=hidden;whiteSpace=wrap;html=1;" vertex="1" parent="o50DH5vK2s1su8xFmBfq-71">
          <mxGeometry width="30" height="30" as="geometry">
            <mxRectangle width="30" height="30" as="alternateBounds" />
          </mxGeometry>
        </mxCell>
        <mxCell id="o50DH5vK2s1su8xFmBfq-73" value="province:string" style="shape=partialRectangle;connectable=0;fillColor=none;top=0;left=0;bottom=0;right=0;align=left;spacingLeft=6;overflow=hidden;whiteSpace=wrap;html=1;" vertex="1" parent="o50DH5vK2s1su8xFmBfq-71">
          <mxGeometry x="30" width="230" height="30" as="geometry">
            <mxRectangle width="230" height="30" as="alternateBounds" />
          </mxGeometry>
        </mxCell>
        <mxCell id="o50DH5vK2s1su8xFmBfq-74" value="" style="shape=tableRow;horizontal=0;startSize=0;swimlaneHead=0;swimlaneBody=0;fillColor=none;collapsible=0;dropTarget=0;points=[[0,0.5],[1,0.5]];portConstraint=eastwest;top=0;left=0;right=0;bottom=0;" vertex="1" parent="o50DH5vK2s1su8xFmBfq-1">
          <mxGeometry y="210" width="260" height="30" as="geometry" />
        </mxCell>
        <mxCell id="o50DH5vK2s1su8xFmBfq-75" value="&lt;br/&gt;" style="shape=partialRectangle;connectable=0;fillColor=none;top=0;left=0;bottom=0;right=0;editable=1;overflow=hidden;whiteSpace=wrap;html=1;" vertex="1" parent="o50DH5vK2s1su8xFmBfq-74">
          <mxGeometry width="30" height="30" as="geometry">
            <mxRectangle width="30" height="30" as="alternateBounds" />
          </mxGeometry>
        </mxCell>
        <mxCell id="o50DH5vK2s1su8xFmBfq-76" value="city:string" style="shape=partialRectangle;connectable=0;fillColor=none;top=0;left=0;bottom=0;right=0;align=left;spacingLeft=6;overflow=hidden;whiteSpace=wrap;html=1;" vertex="1" parent="o50DH5vK2s1su8xFmBfq-74">
          <mxGeometry x="30" width="230" height="30" as="geometry">
            <mxRectangle width="230" height="30" as="alternateBounds" />
          </mxGeometry>
        </mxCell>
        <mxCell id="o50DH5vK2s1su8xFmBfq-83" value="" style="shape=tableRow;horizontal=0;startSize=0;swimlaneHead=0;swimlaneBody=0;fillColor=none;collapsible=0;dropTarget=0;points=[[0,0.5],[1,0.5]];portConstraint=eastwest;top=0;left=0;right=0;bottom=0;" vertex="1" parent="o50DH5vK2s1su8xFmBfq-1">
          <mxGeometry y="240" width="260" height="30" as="geometry" />
        </mxCell>
        <mxCell id="o50DH5vK2s1su8xFmBfq-84" value="&lt;br/&gt;" style="shape=partialRectangle;connectable=0;fillColor=none;top=0;left=0;bottom=0;right=0;editable=1;overflow=hidden;whiteSpace=wrap;html=1;" vertex="1" parent="o50DH5vK2s1su8xFmBfq-83">
          <mxGeometry width="30" height="30" as="geometry">
            <mxRectangle width="30" height="30" as="alternateBounds" />
          </mxGeometry>
        </mxCell>
        <mxCell id="o50DH5vK2s1su8xFmBfq-85" value="phone:string" style="shape=partialRectangle;connectable=0;fillColor=none;top=0;left=0;bottom=0;right=0;align=left;spacingLeft=6;overflow=hidden;whiteSpace=wrap;html=1;" vertex="1" parent="o50DH5vK2s1su8xFmBfq-83">
          <mxGeometry x="30" width="230" height="30" as="geometry">
            <mxRectangle width="230" height="30" as="alternateBounds" />
          </mxGeometry>
        </mxCell>
        <mxCell id="o50DH5vK2s1su8xFmBfq-80" value="" style="shape=tableRow;horizontal=0;startSize=0;swimlaneHead=0;swimlaneBody=0;fillColor=none;collapsible=0;dropTarget=0;points=[[0,0.5],[1,0.5]];portConstraint=eastwest;top=0;left=0;right=0;bottom=0;" vertex="1" parent="o50DH5vK2s1su8xFmBfq-1">
          <mxGeometry y="270" width="260" height="30" as="geometry" />
        </mxCell>
        <mxCell id="o50DH5vK2s1su8xFmBfq-81" value="&lt;br/&gt;" style="shape=partialRectangle;connectable=0;fillColor=none;top=0;left=0;bottom=0;right=0;editable=1;overflow=hidden;whiteSpace=wrap;html=1;" vertex="1" parent="o50DH5vK2s1su8xFmBfq-80">
          <mxGeometry width="30" height="30" as="geometry">
            <mxRectangle width="30" height="30" as="alternateBounds" />
          </mxGeometry>
        </mxCell>
        <mxCell id="o50DH5vK2s1su8xFmBfq-82" value="&lt;font color=&quot;#ff0000&quot;&gt;taxInfo: (taxOffice:string, taxID:string)&lt;/font&gt;" style="shape=partialRectangle;connectable=0;fillColor=none;top=0;left=0;bottom=0;right=0;align=left;spacingLeft=6;overflow=hidden;whiteSpace=wrap;html=1;" vertex="1" parent="o50DH5vK2s1su8xFmBfq-80">
          <mxGeometry x="30" width="230" height="30" as="geometry">
            <mxRectangle width="230" height="30" as="alternateBounds" />
          </mxGeometry>
        </mxCell>
        <mxCell id="dtOEaZ7rbLRQVM6c3AeH-62" value="" style="shape=tableRow;horizontal=0;startSize=0;swimlaneHead=0;swimlaneBody=0;fillColor=none;collapsible=0;dropTarget=0;points=[[0,0.5],[1,0.5]];portConstraint=eastwest;top=0;left=0;right=0;bottom=0;" vertex="1" parent="o50DH5vK2s1su8xFmBfq-1">
          <mxGeometry y="300" width="260" height="30" as="geometry" />
        </mxCell>
        <mxCell id="dtOEaZ7rbLRQVM6c3AeH-63" value="&lt;br/&gt;" style="shape=partialRectangle;connectable=0;fillColor=none;top=0;left=0;bottom=0;right=0;editable=1;overflow=hidden;whiteSpace=wrap;html=1;" vertex="1" parent="dtOEaZ7rbLRQVM6c3AeH-62">
          <mxGeometry width="30" height="30" as="geometry">
            <mxRectangle width="30" height="30" as="alternateBounds" />
          </mxGeometry>
        </mxCell>
        <mxCell id="dtOEaZ7rbLRQVM6c3AeH-64" value="&lt;font color=&quot;#ff0000&quot;&gt;documents: (string,string) [ ]&lt;/font&gt;" style="shape=partialRectangle;connectable=0;fillColor=none;top=0;left=0;bottom=0;right=0;align=left;spacingLeft=6;overflow=hidden;whiteSpace=wrap;html=1;" vertex="1" parent="dtOEaZ7rbLRQVM6c3AeH-62">
          <mxGeometry x="30" width="230" height="30" as="geometry">
            <mxRectangle width="230" height="30" as="alternateBounds" />
          </mxGeometry>
        </mxCell>
        <mxCell id="o50DH5vK2s1su8xFmBfq-111" value="" style="shape=tableRow;horizontal=0;startSize=0;swimlaneHead=0;swimlaneBody=0;fillColor=none;collapsible=0;dropTarget=0;points=[[0,0.5],[1,0.5]];portConstraint=eastwest;top=0;left=0;right=0;bottom=0;" vertex="1" parent="o50DH5vK2s1su8xFmBfq-1">
          <mxGeometry y="330" width="260" height="30" as="geometry" />
        </mxCell>
        <mxCell id="o50DH5vK2s1su8xFmBfq-112" value="" style="shape=partialRectangle;connectable=0;fillColor=none;top=0;left=0;bottom=0;right=0;editable=1;overflow=hidden;whiteSpace=wrap;html=1;" vertex="1" parent="o50DH5vK2s1su8xFmBfq-111">
          <mxGeometry width="30" height="30" as="geometry">
            <mxRectangle width="30" height="30" as="alternateBounds" />
          </mxGeometry>
        </mxCell>
        <mxCell id="o50DH5vK2s1su8xFmBfq-113" value="freights: (fID:string, status:enum) [ ]" style="shape=partialRectangle;connectable=0;fillColor=none;top=0;left=0;bottom=0;right=0;align=left;spacingLeft=6;overflow=hidden;whiteSpace=wrap;html=1;" vertex="1" parent="o50DH5vK2s1su8xFmBfq-111">
          <mxGeometry x="30" width="230" height="30" as="geometry">
            <mxRectangle width="230" height="30" as="alternateBounds" />
          </mxGeometry>
        </mxCell>
        <mxCell id="dtOEaZ7rbLRQVM6c3AeH-36" value="" style="shape=tableRow;horizontal=0;startSize=0;swimlaneHead=0;swimlaneBody=0;fillColor=none;collapsible=0;dropTarget=0;points=[[0,0.5],[1,0.5]];portConstraint=eastwest;top=0;left=0;right=0;bottom=0;" vertex="1" parent="o50DH5vK2s1su8xFmBfq-1">
          <mxGeometry y="360" width="260" height="30" as="geometry" />
        </mxCell>
        <mxCell id="dtOEaZ7rbLRQVM6c3AeH-37" value="&lt;br/&gt;" style="shape=partialRectangle;connectable=0;fillColor=none;top=0;left=0;bottom=0;right=0;editable=1;overflow=hidden;whiteSpace=wrap;html=1;" vertex="1" parent="dtOEaZ7rbLRQVM6c3AeH-36">
          <mxGeometry width="30" height="30" as="geometry">
            <mxRectangle width="30" height="30" as="alternateBounds" />
          </mxGeometry>
        </mxCell>
        <mxCell id="dtOEaZ7rbLRQVM6c3AeH-38" value="&lt;font color=&quot;#ff0000&quot;&gt;favoriteCarriers: string [ ]&lt;/font&gt;" style="shape=partialRectangle;connectable=0;fillColor=none;top=0;left=0;bottom=0;right=0;align=left;spacingLeft=6;overflow=hidden;whiteSpace=wrap;html=1;" vertex="1" parent="dtOEaZ7rbLRQVM6c3AeH-36">
          <mxGeometry x="30" width="230" height="30" as="geometry">
            <mxRectangle width="230" height="30" as="alternateBounds" />
          </mxGeometry>
        </mxCell>
        <mxCell id="o50DH5vK2s1su8xFmBfq-40" value="Carriers" style="shape=table;startSize=30;container=1;collapsible=1;childLayout=tableLayout;fixedRows=1;rowLines=0;fontStyle=1;align=center;resizeLast=1;html=1;strokeColor=#d79b00;fontFamily=Helvetica;fontSize=12;fontColor=default;fillColor=#ffe6cc;" vertex="1" parent="1">
          <mxGeometry x="-1015" y="670" width="210" height="360" as="geometry" />
        </mxCell>
        <mxCell id="o50DH5vK2s1su8xFmBfq-41" value="" style="shape=tableRow;horizontal=0;startSize=0;swimlaneHead=0;swimlaneBody=0;fillColor=none;collapsible=0;dropTarget=0;points=[[0,0.5],[1,0.5]];portConstraint=eastwest;top=0;left=0;right=0;bottom=1;strokeColor=#d79b00;fontFamily=Helvetica;fontSize=12;fontColor=default;html=1;" vertex="1" parent="o50DH5vK2s1su8xFmBfq-40">
          <mxGeometry y="30" width="210" height="30" as="geometry" />
        </mxCell>
        <mxCell id="o50DH5vK2s1su8xFmBfq-42" value="PK" style="shape=partialRectangle;connectable=0;fillColor=none;top=0;left=0;bottom=0;right=0;fontStyle=1;overflow=hidden;whiteSpace=wrap;html=1;strokeColor=#d79b00;fontFamily=Helvetica;fontSize=12;fontColor=default;startSize=30;" vertex="1" parent="o50DH5vK2s1su8xFmBfq-41">
          <mxGeometry width="30" height="30" as="geometry">
            <mxRectangle width="30" height="30" as="alternateBounds" />
          </mxGeometry>
        </mxCell>
        <mxCell id="o50DH5vK2s1su8xFmBfq-43" value="_cID:string" style="shape=partialRectangle;connectable=0;fillColor=none;top=0;left=0;bottom=0;right=0;align=left;spacingLeft=6;fontStyle=5;overflow=hidden;whiteSpace=wrap;html=1;strokeColor=#d79b00;fontFamily=Helvetica;fontSize=12;fontColor=default;startSize=30;" vertex="1" parent="o50DH5vK2s1su8xFmBfq-41">
          <mxGeometry x="30" width="180" height="30" as="geometry">
            <mxRectangle width="180" height="30" as="alternateBounds" />
          </mxGeometry>
        </mxCell>
        <mxCell id="o50DH5vK2s1su8xFmBfq-44" value="" style="shape=tableRow;horizontal=0;startSize=0;swimlaneHead=0;swimlaneBody=0;fillColor=none;collapsible=0;dropTarget=0;points=[[0,0.5],[1,0.5]];portConstraint=eastwest;top=0;left=0;right=0;bottom=0;strokeColor=#d79b00;fontFamily=Helvetica;fontSize=12;fontColor=default;html=1;" vertex="1" parent="o50DH5vK2s1su8xFmBfq-40">
          <mxGeometry y="60" width="210" height="30" as="geometry" />
        </mxCell>
        <mxCell id="o50DH5vK2s1su8xFmBfq-45" value="" style="shape=partialRectangle;connectable=0;fillColor=none;top=0;left=0;bottom=0;right=0;editable=1;overflow=hidden;whiteSpace=wrap;html=1;strokeColor=#d79b00;fontFamily=Helvetica;fontSize=12;fontColor=default;startSize=30;" vertex="1" parent="o50DH5vK2s1su8xFmBfq-44">
          <mxGeometry width="30" height="30" as="geometry">
            <mxRectangle width="30" height="30" as="alternateBounds" />
          </mxGeometry>
        </mxCell>
        <mxCell id="o50DH5vK2s1su8xFmBfq-46" value="name:string" style="shape=partialRectangle;connectable=0;fillColor=none;top=0;left=0;bottom=0;right=0;align=left;spacingLeft=6;overflow=hidden;whiteSpace=wrap;html=1;strokeColor=#d79b00;fontFamily=Helvetica;fontSize=12;fontColor=default;startSize=30;" vertex="1" parent="o50DH5vK2s1su8xFmBfq-44">
          <mxGeometry x="30" width="180" height="30" as="geometry">
            <mxRectangle width="180" height="30" as="alternateBounds" />
          </mxGeometry>
        </mxCell>
        <mxCell id="o50DH5vK2s1su8xFmBfq-47" value="" style="shape=tableRow;horizontal=0;startSize=0;swimlaneHead=0;swimlaneBody=0;fillColor=none;collapsible=0;dropTarget=0;points=[[0,0.5],[1,0.5]];portConstraint=eastwest;top=0;left=0;right=0;bottom=0;strokeColor=#d79b00;fontFamily=Helvetica;fontSize=12;fontColor=default;html=1;" vertex="1" parent="o50DH5vK2s1su8xFmBfq-40">
          <mxGeometry y="90" width="210" height="30" as="geometry" />
        </mxCell>
        <mxCell id="o50DH5vK2s1su8xFmBfq-48" value="" style="shape=partialRectangle;connectable=0;fillColor=none;top=0;left=0;bottom=0;right=0;editable=1;overflow=hidden;whiteSpace=wrap;html=1;strokeColor=#d79b00;fontFamily=Helvetica;fontSize=12;fontColor=default;startSize=30;" vertex="1" parent="o50DH5vK2s1su8xFmBfq-47">
          <mxGeometry width="30" height="30" as="geometry">
            <mxRectangle width="30" height="30" as="alternateBounds" />
          </mxGeometry>
        </mxCell>
        <mxCell id="o50DH5vK2s1su8xFmBfq-49" value="phoneNumber:string" style="shape=partialRectangle;connectable=0;fillColor=none;top=0;left=0;bottom=0;right=0;align=left;spacingLeft=6;overflow=hidden;whiteSpace=wrap;html=1;strokeColor=#d79b00;fontFamily=Helvetica;fontSize=12;fontColor=default;startSize=30;" vertex="1" parent="o50DH5vK2s1su8xFmBfq-47">
          <mxGeometry x="30" width="180" height="30" as="geometry">
            <mxRectangle width="180" height="30" as="alternateBounds" />
          </mxGeometry>
        </mxCell>
        <mxCell id="3bujCkTI3dHCWaHLoJvc-17" value="" style="shape=tableRow;horizontal=0;startSize=0;swimlaneHead=0;swimlaneBody=0;fillColor=none;collapsible=0;dropTarget=0;points=[[0,0.5],[1,0.5]];portConstraint=eastwest;top=0;left=0;right=0;bottom=0;strokeColor=#d79b00;fontFamily=Helvetica;fontSize=12;fontColor=default;html=1;" vertex="1" parent="o50DH5vK2s1su8xFmBfq-40">
          <mxGeometry y="120" width="210" height="30" as="geometry" />
        </mxCell>
        <mxCell id="3bujCkTI3dHCWaHLoJvc-18" value="" style="shape=partialRectangle;connectable=0;fillColor=none;top=0;left=0;bottom=0;right=0;editable=1;overflow=hidden;whiteSpace=wrap;html=1;strokeColor=#d79b00;fontFamily=Helvetica;fontSize=12;fontColor=default;startSize=30;" vertex="1" parent="3bujCkTI3dHCWaHLoJvc-17">
          <mxGeometry width="30" height="30" as="geometry">
            <mxRectangle width="30" height="30" as="alternateBounds" />
          </mxGeometry>
        </mxCell>
        <mxCell id="3bujCkTI3dHCWaHLoJvc-19" value="isOnBreak:bool" style="shape=partialRectangle;connectable=0;fillColor=none;top=0;left=0;bottom=0;right=0;align=left;spacingLeft=6;overflow=hidden;whiteSpace=wrap;html=1;strokeColor=#d79b00;fontFamily=Helvetica;fontSize=12;fontColor=default;startSize=30;" vertex="1" parent="3bujCkTI3dHCWaHLoJvc-17">
          <mxGeometry x="30" width="180" height="30" as="geometry">
            <mxRectangle width="180" height="30" as="alternateBounds" />
          </mxGeometry>
        </mxCell>
        <mxCell id="3bujCkTI3dHCWaHLoJvc-30" value="" style="shape=tableRow;horizontal=0;startSize=0;swimlaneHead=0;swimlaneBody=0;fillColor=none;collapsible=0;dropTarget=0;points=[[0,0.5],[1,0.5]];portConstraint=eastwest;top=0;left=0;right=0;bottom=0;strokeColor=#d79b00;fontFamily=Helvetica;fontSize=12;fontColor=default;html=1;" vertex="1" parent="o50DH5vK2s1su8xFmBfq-40">
          <mxGeometry y="150" width="210" height="30" as="geometry" />
        </mxCell>
        <mxCell id="3bujCkTI3dHCWaHLoJvc-31" value="" style="shape=partialRectangle;connectable=0;fillColor=none;top=0;left=0;bottom=0;right=0;editable=1;overflow=hidden;whiteSpace=wrap;html=1;strokeColor=#d79b00;fontFamily=Helvetica;fontSize=12;fontColor=default;startSize=30;" vertex="1" parent="3bujCkTI3dHCWaHLoJvc-30">
          <mxGeometry width="30" height="30" as="geometry">
            <mxRectangle width="30" height="30" as="alternateBounds" />
          </mxGeometry>
        </mxCell>
        <mxCell id="3bujCkTI3dHCWaHLoJvc-32" value="lastPos: Object //for single vehicles" style="shape=partialRectangle;connectable=0;fillColor=none;top=0;left=0;bottom=0;right=0;align=left;spacingLeft=6;overflow=hidden;whiteSpace=wrap;html=1;strokeColor=#d79b00;fontFamily=Helvetica;fontSize=12;fontColor=default;startSize=30;" vertex="1" parent="3bujCkTI3dHCWaHLoJvc-30">
          <mxGeometry x="30" width="180" height="30" as="geometry">
            <mxRectangle width="180" height="30" as="alternateBounds" />
          </mxGeometry>
        </mxCell>
        <mxCell id="J0R7kB1mFaKwn7ts1AGc-1" value="" style="shape=tableRow;horizontal=0;startSize=0;swimlaneHead=0;swimlaneBody=0;fillColor=none;collapsible=0;dropTarget=0;points=[[0,0.5],[1,0.5]];portConstraint=eastwest;top=0;left=0;right=0;bottom=0;strokeColor=#d79b00;fontFamily=Helvetica;fontSize=12;fontColor=default;html=1;" vertex="1" parent="o50DH5vK2s1su8xFmBfq-40">
          <mxGeometry y="180" width="210" height="30" as="geometry" />
        </mxCell>
        <mxCell id="J0R7kB1mFaKwn7ts1AGc-2" value="" style="shape=partialRectangle;connectable=0;fillColor=none;top=0;left=0;bottom=0;right=0;editable=1;overflow=hidden;whiteSpace=wrap;html=1;strokeColor=#d79b00;fontFamily=Helvetica;fontSize=12;fontColor=default;startSize=30;" vertex="1" parent="J0R7kB1mFaKwn7ts1AGc-1">
          <mxGeometry width="30" height="30" as="geometry">
            <mxRectangle width="30" height="30" as="alternateBounds" />
          </mxGeometry>
        </mxCell>
        <mxCell id="J0R7kB1mFaKwn7ts1AGc-3" value="&lt;font color=&quot;#ff0000&quot;&gt;verificationCode: Object [ ]&lt;/font&gt;" style="shape=partialRectangle;connectable=0;fillColor=none;top=0;left=0;bottom=0;right=0;align=left;spacingLeft=6;overflow=hidden;whiteSpace=wrap;html=1;strokeColor=#d79b00;fontFamily=Helvetica;fontSize=12;fontColor=default;startSize=30;" vertex="1" parent="J0R7kB1mFaKwn7ts1AGc-1">
          <mxGeometry x="30" width="180" height="30" as="geometry">
            <mxRectangle width="180" height="30" as="alternateBounds" />
          </mxGeometry>
        </mxCell>
        <mxCell id="o50DH5vK2s1su8xFmBfq-50" value="" style="shape=tableRow;horizontal=0;startSize=0;swimlaneHead=0;swimlaneBody=0;fillColor=none;collapsible=0;dropTarget=0;points=[[0,0.5],[1,0.5]];portConstraint=eastwest;top=0;left=0;right=0;bottom=0;strokeColor=#d79b00;fontFamily=Helvetica;fontSize=12;fontColor=default;html=1;" vertex="1" parent="o50DH5vK2s1su8xFmBfq-40">
          <mxGeometry y="210" width="210" height="30" as="geometry" />
        </mxCell>
        <mxCell id="o50DH5vK2s1su8xFmBfq-51" value="" style="shape=partialRectangle;connectable=0;fillColor=none;top=0;left=0;bottom=0;right=0;editable=1;overflow=hidden;whiteSpace=wrap;html=1;strokeColor=#d79b00;fontFamily=Helvetica;fontSize=12;fontColor=default;startSize=30;" vertex="1" parent="o50DH5vK2s1su8xFmBfq-50">
          <mxGeometry width="30" height="30" as="geometry">
            <mxRectangle width="30" height="30" as="alternateBounds" />
          </mxGeometry>
        </mxCell>
        <mxCell id="o50DH5vK2s1su8xFmBfq-52" value="vehicles: Object [ ]" style="shape=partialRectangle;connectable=0;fillColor=none;top=0;left=0;bottom=0;right=0;align=left;spacingLeft=6;overflow=hidden;whiteSpace=wrap;html=1;strokeColor=#d79b00;fontFamily=Helvetica;fontSize=12;fontColor=default;startSize=30;" vertex="1" parent="o50DH5vK2s1su8xFmBfq-50">
          <mxGeometry x="30" width="180" height="30" as="geometry">
            <mxRectangle width="180" height="30" as="alternateBounds" />
          </mxGeometry>
        </mxCell>
        <mxCell id="3bujCkTI3dHCWaHLoJvc-33" value="" style="shape=tableRow;horizontal=0;startSize=0;swimlaneHead=0;swimlaneBody=0;fillColor=none;collapsible=0;dropTarget=0;points=[[0,0.5],[1,0.5]];portConstraint=eastwest;top=0;left=0;right=0;bottom=0;strokeColor=#d79b00;fontFamily=Helvetica;fontSize=12;fontColor=default;html=1;" vertex="1" parent="o50DH5vK2s1su8xFmBfq-40">
          <mxGeometry y="240" width="210" height="30" as="geometry" />
        </mxCell>
        <mxCell id="3bujCkTI3dHCWaHLoJvc-34" value="" style="shape=partialRectangle;connectable=0;fillColor=none;top=0;left=0;bottom=0;right=0;editable=1;overflow=hidden;whiteSpace=wrap;html=1;strokeColor=#d79b00;fontFamily=Helvetica;fontSize=12;fontColor=default;startSize=30;" vertex="1" parent="3bujCkTI3dHCWaHLoJvc-33">
          <mxGeometry width="30" height="30" as="geometry">
            <mxRectangle width="30" height="30" as="alternateBounds" />
          </mxGeometry>
        </mxCell>
        <mxCell id="3bujCkTI3dHCWaHLoJvc-35" value="creditCards: Object [ ]" style="shape=partialRectangle;connectable=0;fillColor=none;top=0;left=0;bottom=0;right=0;align=left;spacingLeft=6;overflow=hidden;whiteSpace=wrap;html=1;strokeColor=#d79b00;fontFamily=Helvetica;fontSize=12;fontColor=default;startSize=30;" vertex="1" parent="3bujCkTI3dHCWaHLoJvc-33">
          <mxGeometry x="30" width="180" height="30" as="geometry">
            <mxRectangle width="180" height="30" as="alternateBounds" />
          </mxGeometry>
        </mxCell>
        <mxCell id="dtOEaZ7rbLRQVM6c3AeH-59" value="" style="shape=tableRow;horizontal=0;startSize=0;swimlaneHead=0;swimlaneBody=0;fillColor=none;collapsible=0;dropTarget=0;points=[[0,0.5],[1,0.5]];portConstraint=eastwest;top=0;left=0;right=0;bottom=0;strokeColor=#d79b00;fontFamily=Helvetica;fontSize=12;fontColor=default;html=1;" vertex="1" parent="o50DH5vK2s1su8xFmBfq-40">
          <mxGeometry y="270" width="210" height="30" as="geometry" />
        </mxCell>
        <mxCell id="dtOEaZ7rbLRQVM6c3AeH-60" value="" style="shape=partialRectangle;connectable=0;fillColor=none;top=0;left=0;bottom=0;right=0;editable=1;overflow=hidden;whiteSpace=wrap;html=1;strokeColor=#d79b00;fontFamily=Helvetica;fontSize=12;fontColor=default;startSize=30;" vertex="1" parent="dtOEaZ7rbLRQVM6c3AeH-59">
          <mxGeometry width="30" height="30" as="geometry">
            <mxRectangle width="30" height="30" as="alternateBounds" />
          </mxGeometry>
        </mxCell>
        <mxCell id="dtOEaZ7rbLRQVM6c3AeH-61" value="&lt;font color=&quot;#ff0000&quot;&gt;documents: (string,string) [ ]&lt;/font&gt;" style="shape=partialRectangle;connectable=0;fillColor=none;top=0;left=0;bottom=0;right=0;align=left;spacingLeft=6;overflow=hidden;whiteSpace=wrap;html=1;strokeColor=#d79b00;fontFamily=Helvetica;fontSize=12;fontColor=default;startSize=30;" vertex="1" parent="dtOEaZ7rbLRQVM6c3AeH-59">
          <mxGeometry x="30" width="180" height="30" as="geometry">
            <mxRectangle width="180" height="30" as="alternateBounds" />
          </mxGeometry>
        </mxCell>
        <mxCell id="dtOEaZ7rbLRQVM6c3AeH-43" value="" style="shape=tableRow;horizontal=0;startSize=0;swimlaneHead=0;swimlaneBody=0;fillColor=none;collapsible=0;dropTarget=0;points=[[0,0.5],[1,0.5]];portConstraint=eastwest;top=0;left=0;right=0;bottom=0;strokeColor=#d79b00;fontFamily=Helvetica;fontSize=12;fontColor=default;html=1;" vertex="1" parent="o50DH5vK2s1su8xFmBfq-40">
          <mxGeometry y="300" width="210" height="30" as="geometry" />
        </mxCell>
        <mxCell id="dtOEaZ7rbLRQVM6c3AeH-44" value="" style="shape=partialRectangle;connectable=0;fillColor=none;top=0;left=0;bottom=0;right=0;editable=1;overflow=hidden;whiteSpace=wrap;html=1;strokeColor=#d79b00;fontFamily=Helvetica;fontSize=12;fontColor=default;startSize=30;" vertex="1" parent="dtOEaZ7rbLRQVM6c3AeH-43">
          <mxGeometry width="30" height="30" as="geometry">
            <mxRectangle width="30" height="30" as="alternateBounds" />
          </mxGeometry>
        </mxCell>
        <mxCell id="dtOEaZ7rbLRQVM6c3AeH-45" value="&lt;font color=&quot;#ff0000&quot;&gt;ratingAverage: double&lt;/font&gt;" style="shape=partialRectangle;connectable=0;fillColor=none;top=0;left=0;bottom=0;right=0;align=left;spacingLeft=6;overflow=hidden;whiteSpace=wrap;html=1;strokeColor=#d79b00;fontFamily=Helvetica;fontSize=12;fontColor=default;startSize=30;" vertex="1" parent="dtOEaZ7rbLRQVM6c3AeH-43">
          <mxGeometry x="30" width="180" height="30" as="geometry">
            <mxRectangle width="180" height="30" as="alternateBounds" />
          </mxGeometry>
        </mxCell>
        <mxCell id="dtOEaZ7rbLRQVM6c3AeH-46" value="" style="shape=tableRow;horizontal=0;startSize=0;swimlaneHead=0;swimlaneBody=0;fillColor=none;collapsible=0;dropTarget=0;points=[[0,0.5],[1,0.5]];portConstraint=eastwest;top=0;left=0;right=0;bottom=0;strokeColor=#d79b00;fontFamily=Helvetica;fontSize=12;fontColor=default;html=1;" vertex="1" parent="o50DH5vK2s1su8xFmBfq-40">
          <mxGeometry y="330" width="210" height="30" as="geometry" />
        </mxCell>
        <mxCell id="dtOEaZ7rbLRQVM6c3AeH-47" value="" style="shape=partialRectangle;connectable=0;fillColor=none;top=0;left=0;bottom=0;right=0;editable=1;overflow=hidden;whiteSpace=wrap;html=1;strokeColor=#d79b00;fontFamily=Helvetica;fontSize=12;fontColor=default;startSize=30;" vertex="1" parent="dtOEaZ7rbLRQVM6c3AeH-46">
          <mxGeometry width="30" height="30" as="geometry">
            <mxRectangle width="30" height="30" as="alternateBounds" />
          </mxGeometry>
        </mxCell>
        <mxCell id="dtOEaZ7rbLRQVM6c3AeH-48" value="&lt;font color=&quot;#ff0000&quot;&gt;ratings: (agentID:string, rate: double, date:Date) [ ]&lt;/font&gt;" style="shape=partialRectangle;connectable=0;fillColor=none;top=0;left=0;bottom=0;right=0;align=left;spacingLeft=6;overflow=hidden;whiteSpace=wrap;html=1;strokeColor=#d79b00;fontFamily=Helvetica;fontSize=12;fontColor=default;startSize=30;" vertex="1" parent="dtOEaZ7rbLRQVM6c3AeH-46">
          <mxGeometry x="30" width="180" height="30" as="geometry">
            <mxRectangle width="180" height="30" as="alternateBounds" />
          </mxGeometry>
        </mxCell>
        <mxCell id="o50DH5vK2s1su8xFmBfq-53" value="Freights" style="shape=table;startSize=30;container=1;collapsible=1;childLayout=tableLayout;fixedRows=1;rowLines=0;fontStyle=1;align=center;resizeLast=1;html=1;strokeColor=#d79b00;fontFamily=Helvetica;fontSize=12;fontColor=default;fillColor=#ffe6cc;" vertex="1" parent="1">
          <mxGeometry x="-740" y="140" width="260" height="610" as="geometry" />
        </mxCell>
        <mxCell id="o50DH5vK2s1su8xFmBfq-54" value="" style="shape=tableRow;horizontal=0;startSize=0;swimlaneHead=0;swimlaneBody=0;fillColor=none;collapsible=0;dropTarget=0;points=[[0,0.5],[1,0.5]];portConstraint=eastwest;top=0;left=0;right=0;bottom=1;strokeColor=#d79b00;fontFamily=Helvetica;fontSize=12;fontColor=default;html=1;" vertex="1" parent="o50DH5vK2s1su8xFmBfq-53">
          <mxGeometry y="30" width="260" height="30" as="geometry" />
        </mxCell>
        <mxCell id="o50DH5vK2s1su8xFmBfq-55" value="PK" style="shape=partialRectangle;connectable=0;fillColor=none;top=0;left=0;bottom=0;right=0;fontStyle=1;overflow=hidden;whiteSpace=wrap;html=1;strokeColor=#d79b00;fontFamily=Helvetica;fontSize=12;fontColor=default;startSize=30;" vertex="1" parent="o50DH5vK2s1su8xFmBfq-54">
          <mxGeometry width="30" height="30" as="geometry">
            <mxRectangle width="30" height="30" as="alternateBounds" />
          </mxGeometry>
        </mxCell>
        <mxCell id="o50DH5vK2s1su8xFmBfq-56" value="_fID:string" style="shape=partialRectangle;connectable=0;fillColor=none;top=0;left=0;bottom=0;right=0;align=left;spacingLeft=6;fontStyle=5;overflow=hidden;whiteSpace=wrap;html=1;strokeColor=#d79b00;fontFamily=Helvetica;fontSize=12;fontColor=default;startSize=30;" vertex="1" parent="o50DH5vK2s1su8xFmBfq-54">
          <mxGeometry x="30" width="230" height="30" as="geometry">
            <mxRectangle width="230" height="30" as="alternateBounds" />
          </mxGeometry>
        </mxCell>
        <mxCell id="o50DH5vK2s1su8xFmBfq-57" value="" style="shape=tableRow;horizontal=0;startSize=0;swimlaneHead=0;swimlaneBody=0;fillColor=none;collapsible=0;dropTarget=0;points=[[0,0.5],[1,0.5]];portConstraint=eastwest;top=0;left=0;right=0;bottom=0;strokeColor=#d79b00;fontFamily=Helvetica;fontSize=12;fontColor=default;html=1;" vertex="1" parent="o50DH5vK2s1su8xFmBfq-53">
          <mxGeometry y="60" width="260" height="30" as="geometry" />
        </mxCell>
        <mxCell id="o50DH5vK2s1su8xFmBfq-58" value="" style="shape=partialRectangle;connectable=0;fillColor=none;top=0;left=0;bottom=0;right=0;editable=1;overflow=hidden;whiteSpace=wrap;html=1;strokeColor=#d79b00;fontFamily=Helvetica;fontSize=12;fontColor=default;startSize=30;" vertex="1" parent="o50DH5vK2s1su8xFmBfq-57">
          <mxGeometry width="30" height="30" as="geometry">
            <mxRectangle width="30" height="30" as="alternateBounds" />
          </mxGeometry>
        </mxCell>
        <mxCell id="o50DH5vK2s1su8xFmBfq-59" value="name:string" style="shape=partialRectangle;connectable=0;fillColor=none;top=0;left=0;bottom=0;right=0;align=left;spacingLeft=6;overflow=hidden;whiteSpace=wrap;html=1;strokeColor=#d79b00;fontFamily=Helvetica;fontSize=12;fontColor=default;startSize=30;" vertex="1" parent="o50DH5vK2s1su8xFmBfq-57">
          <mxGeometry x="30" width="230" height="30" as="geometry">
            <mxRectangle width="230" height="30" as="alternateBounds" />
          </mxGeometry>
        </mxCell>
        <mxCell id="0d2i7ZcnWRZ4m1nRk_Io-1" value="" style="shape=tableRow;horizontal=0;startSize=0;swimlaneHead=0;swimlaneBody=0;fillColor=none;collapsible=0;dropTarget=0;points=[[0,0.5],[1,0.5]];portConstraint=eastwest;top=0;left=0;right=0;bottom=0;strokeColor=#d79b00;fontFamily=Helvetica;fontSize=12;fontColor=default;html=1;" vertex="1" parent="o50DH5vK2s1su8xFmBfq-53">
          <mxGeometry y="90" width="260" height="30" as="geometry" />
        </mxCell>
        <mxCell id="0d2i7ZcnWRZ4m1nRk_Io-2" value="" style="shape=partialRectangle;connectable=0;fillColor=none;top=0;left=0;bottom=0;right=0;editable=1;overflow=hidden;whiteSpace=wrap;html=1;strokeColor=#d79b00;fontFamily=Helvetica;fontSize=12;fontColor=default;startSize=30;" vertex="1" parent="0d2i7ZcnWRZ4m1nRk_Io-1">
          <mxGeometry width="30" height="30" as="geometry">
            <mxRectangle width="30" height="30" as="alternateBounds" />
          </mxGeometry>
        </mxCell>
        <mxCell id="0d2i7ZcnWRZ4m1nRk_Io-3" value="date:Date" style="shape=partialRectangle;connectable=0;fillColor=none;top=0;left=0;bottom=0;right=0;align=left;spacingLeft=6;overflow=hidden;whiteSpace=wrap;html=1;strokeColor=#d79b00;fontFamily=Helvetica;fontSize=12;fontColor=default;startSize=30;" vertex="1" parent="0d2i7ZcnWRZ4m1nRk_Io-1">
          <mxGeometry x="30" width="230" height="30" as="geometry">
            <mxRectangle width="230" height="30" as="alternateBounds" />
          </mxGeometry>
        </mxCell>
        <mxCell id="o50DH5vK2s1su8xFmBfq-60" value="" style="shape=tableRow;horizontal=0;startSize=0;swimlaneHead=0;swimlaneBody=0;fillColor=none;collapsible=0;dropTarget=0;points=[[0,0.5],[1,0.5]];portConstraint=eastwest;top=0;left=0;right=0;bottom=0;strokeColor=#d79b00;fontFamily=Helvetica;fontSize=12;fontColor=default;html=1;" vertex="1" parent="o50DH5vK2s1su8xFmBfq-53">
          <mxGeometry y="120" width="260" height="30" as="geometry" />
        </mxCell>
        <mxCell id="o50DH5vK2s1su8xFmBfq-61" value="" style="shape=partialRectangle;connectable=0;fillColor=none;top=0;left=0;bottom=0;right=0;editable=1;overflow=hidden;whiteSpace=wrap;html=1;strokeColor=#d79b00;fontFamily=Helvetica;fontSize=12;fontColor=default;startSize=30;" vertex="1" parent="o50DH5vK2s1su8xFmBfq-60">
          <mxGeometry width="30" height="30" as="geometry">
            <mxRectangle width="30" height="30" as="alternateBounds" />
          </mxGeometry>
        </mxCell>
        <mxCell id="o50DH5vK2s1su8xFmBfq-62" value="price:double" style="shape=partialRectangle;connectable=0;fillColor=none;top=0;left=0;bottom=0;right=0;align=left;spacingLeft=6;overflow=hidden;whiteSpace=wrap;html=1;strokeColor=#d79b00;fontFamily=Helvetica;fontSize=12;fontColor=default;startSize=30;" vertex="1" parent="o50DH5vK2s1su8xFmBfq-60">
          <mxGeometry x="30" width="230" height="30" as="geometry">
            <mxRectangle width="230" height="30" as="alternateBounds" />
          </mxGeometry>
        </mxCell>
        <mxCell id="3bujCkTI3dHCWaHLoJvc-75" value="" style="shape=tableRow;horizontal=0;startSize=0;swimlaneHead=0;swimlaneBody=0;fillColor=none;collapsible=0;dropTarget=0;points=[[0,0.5],[1,0.5]];portConstraint=eastwest;top=0;left=0;right=0;bottom=0;strokeColor=#d79b00;fontFamily=Helvetica;fontSize=12;fontColor=default;html=1;" vertex="1" parent="o50DH5vK2s1su8xFmBfq-53">
          <mxGeometry y="150" width="260" height="30" as="geometry" />
        </mxCell>
        <mxCell id="3bujCkTI3dHCWaHLoJvc-76" value="" style="shape=partialRectangle;connectable=0;fillColor=none;top=0;left=0;bottom=0;right=0;editable=1;overflow=hidden;whiteSpace=wrap;html=1;strokeColor=#d79b00;fontFamily=Helvetica;fontSize=12;fontColor=default;startSize=30;" vertex="1" parent="3bujCkTI3dHCWaHLoJvc-75">
          <mxGeometry width="30" height="30" as="geometry">
            <mxRectangle width="30" height="30" as="alternateBounds" />
          </mxGeometry>
        </mxCell>
        <mxCell id="3bujCkTI3dHCWaHLoJvc-77" value="commission:double" style="shape=partialRectangle;connectable=0;fillColor=none;top=0;left=0;bottom=0;right=0;align=left;spacingLeft=6;overflow=hidden;whiteSpace=wrap;html=1;strokeColor=#d79b00;fontFamily=Helvetica;fontSize=12;fontColor=default;startSize=30;" vertex="1" parent="3bujCkTI3dHCWaHLoJvc-75">
          <mxGeometry x="30" width="230" height="30" as="geometry">
            <mxRectangle width="230" height="30" as="alternateBounds" />
          </mxGeometry>
        </mxCell>
        <mxCell id="3bujCkTI3dHCWaHLoJvc-96" value="" style="shape=tableRow;horizontal=0;startSize=0;swimlaneHead=0;swimlaneBody=0;fillColor=none;collapsible=0;dropTarget=0;points=[[0,0.5],[1,0.5]];portConstraint=eastwest;top=0;left=0;right=0;bottom=0;strokeColor=#d79b00;fontFamily=Helvetica;fontSize=12;fontColor=default;html=1;" vertex="1" parent="o50DH5vK2s1su8xFmBfq-53">
          <mxGeometry y="180" width="260" height="30" as="geometry" />
        </mxCell>
        <mxCell id="3bujCkTI3dHCWaHLoJvc-97" value="" style="shape=partialRectangle;connectable=0;fillColor=none;top=0;left=0;bottom=0;right=0;editable=1;overflow=hidden;whiteSpace=wrap;html=1;strokeColor=#d79b00;fontFamily=Helvetica;fontSize=12;fontColor=default;startSize=30;" vertex="1" parent="3bujCkTI3dHCWaHLoJvc-96">
          <mxGeometry width="30" height="30" as="geometry">
            <mxRectangle width="30" height="30" as="alternateBounds" />
          </mxGeometry>
        </mxCell>
        <mxCell id="3bujCkTI3dHCWaHLoJvc-98" value="customerID:string" style="shape=partialRectangle;connectable=0;fillColor=none;top=0;left=0;bottom=0;right=0;align=left;spacingLeft=6;overflow=hidden;whiteSpace=wrap;html=1;strokeColor=#d79b00;fontFamily=Helvetica;fontSize=12;fontColor=default;startSize=30;" vertex="1" parent="3bujCkTI3dHCWaHLoJvc-96">
          <mxGeometry x="30" width="230" height="30" as="geometry">
            <mxRectangle width="230" height="30" as="alternateBounds" />
          </mxGeometry>
        </mxCell>
        <mxCell id="qWQvtJ5DtlUzXpoNj0P--4" value="" style="shape=tableRow;horizontal=0;startSize=0;swimlaneHead=0;swimlaneBody=0;fillColor=none;collapsible=0;dropTarget=0;points=[[0,0.5],[1,0.5]];portConstraint=eastwest;top=0;left=0;right=0;bottom=0;strokeColor=#d79b00;fontFamily=Helvetica;fontSize=12;fontColor=default;html=1;" vertex="1" parent="o50DH5vK2s1su8xFmBfq-53">
          <mxGeometry y="210" width="260" height="30" as="geometry" />
        </mxCell>
        <mxCell id="qWQvtJ5DtlUzXpoNj0P--5" value="" style="shape=partialRectangle;connectable=0;fillColor=none;top=0;left=0;bottom=0;right=0;editable=1;overflow=hidden;whiteSpace=wrap;html=1;strokeColor=#d79b00;fontFamily=Helvetica;fontSize=12;fontColor=default;startSize=30;" vertex="1" parent="qWQvtJ5DtlUzXpoNj0P--4">
          <mxGeometry width="30" height="30" as="geometry">
            <mxRectangle width="30" height="30" as="alternateBounds" />
          </mxGeometry>
        </mxCell>
        <mxCell id="qWQvtJ5DtlUzXpoNj0P--6" value="cargoType:String" style="shape=partialRectangle;connectable=0;fillColor=none;top=0;left=0;bottom=0;right=0;align=left;spacingLeft=6;overflow=hidden;whiteSpace=wrap;html=1;strokeColor=#d79b00;fontFamily=Helvetica;fontSize=12;fontColor=default;startSize=30;" vertex="1" parent="qWQvtJ5DtlUzXpoNj0P--4">
          <mxGeometry x="30" width="230" height="30" as="geometry">
            <mxRectangle width="230" height="30" as="alternateBounds" />
          </mxGeometry>
        </mxCell>
        <mxCell id="o50DH5vK2s1su8xFmBfq-63" value="" style="shape=tableRow;horizontal=0;startSize=0;swimlaneHead=0;swimlaneBody=0;fillColor=none;collapsible=0;dropTarget=0;points=[[0,0.5],[1,0.5]];portConstraint=eastwest;top=0;left=0;right=0;bottom=0;strokeColor=#d79b00;fontFamily=Helvetica;fontSize=12;fontColor=default;html=1;" vertex="1" parent="o50DH5vK2s1su8xFmBfq-53">
          <mxGeometry y="240" width="260" height="30" as="geometry" />
        </mxCell>
        <mxCell id="o50DH5vK2s1su8xFmBfq-64" value="" style="shape=partialRectangle;connectable=0;fillColor=none;top=0;left=0;bottom=0;right=0;editable=1;overflow=hidden;whiteSpace=wrap;html=1;strokeColor=#d79b00;fontFamily=Helvetica;fontSize=12;fontColor=default;startSize=30;" vertex="1" parent="o50DH5vK2s1su8xFmBfq-63">
          <mxGeometry width="30" height="30" as="geometry">
            <mxRectangle width="30" height="30" as="alternateBounds" />
          </mxGeometry>
        </mxCell>
        <mxCell id="o50DH5vK2s1su8xFmBfq-65" value="weight:double" style="shape=partialRectangle;connectable=0;fillColor=none;top=0;left=0;bottom=0;right=0;align=left;spacingLeft=6;overflow=hidden;whiteSpace=wrap;html=1;strokeColor=#d79b00;fontFamily=Helvetica;fontSize=12;fontColor=default;startSize=30;" vertex="1" parent="o50DH5vK2s1su8xFmBfq-63">
          <mxGeometry x="30" width="230" height="30" as="geometry">
            <mxRectangle width="230" height="30" as="alternateBounds" />
          </mxGeometry>
        </mxCell>
        <mxCell id="3bujCkTI3dHCWaHLoJvc-63" value="" style="shape=tableRow;horizontal=0;startSize=0;swimlaneHead=0;swimlaneBody=0;fillColor=none;collapsible=0;dropTarget=0;points=[[0,0.5],[1,0.5]];portConstraint=eastwest;top=0;left=0;right=0;bottom=0;strokeColor=#d79b00;fontFamily=Helvetica;fontSize=12;fontColor=default;html=1;" vertex="1" parent="o50DH5vK2s1su8xFmBfq-53">
          <mxGeometry y="270" width="260" height="30" as="geometry" />
        </mxCell>
        <mxCell id="3bujCkTI3dHCWaHLoJvc-64" value="" style="shape=partialRectangle;connectable=0;fillColor=none;top=0;left=0;bottom=0;right=0;editable=1;overflow=hidden;whiteSpace=wrap;html=1;strokeColor=#d79b00;fontFamily=Helvetica;fontSize=12;fontColor=default;startSize=30;" vertex="1" parent="3bujCkTI3dHCWaHLoJvc-63">
          <mxGeometry width="30" height="30" as="geometry">
            <mxRectangle width="30" height="30" as="alternateBounds" />
          </mxGeometry>
        </mxCell>
        <mxCell id="3bujCkTI3dHCWaHLoJvc-65" value="source: Object" style="shape=partialRectangle;connectable=0;fillColor=none;top=0;left=0;bottom=0;right=0;align=left;spacingLeft=6;overflow=hidden;whiteSpace=wrap;html=1;strokeColor=#d79b00;fontFamily=Helvetica;fontSize=12;fontColor=default;startSize=30;" vertex="1" parent="3bujCkTI3dHCWaHLoJvc-63">
          <mxGeometry x="30" width="230" height="30" as="geometry">
            <mxRectangle width="230" height="30" as="alternateBounds" />
          </mxGeometry>
        </mxCell>
        <mxCell id="0d2i7ZcnWRZ4m1nRk_Io-4" value="" style="shape=tableRow;horizontal=0;startSize=0;swimlaneHead=0;swimlaneBody=0;fillColor=none;collapsible=0;dropTarget=0;points=[[0,0.5],[1,0.5]];portConstraint=eastwest;top=0;left=0;right=0;bottom=0;strokeColor=#d79b00;fontFamily=Helvetica;fontSize=12;fontColor=default;html=1;" vertex="1" parent="o50DH5vK2s1su8xFmBfq-53">
          <mxGeometry y="300" width="260" height="30" as="geometry" />
        </mxCell>
        <mxCell id="0d2i7ZcnWRZ4m1nRk_Io-5" value="" style="shape=partialRectangle;connectable=0;fillColor=none;top=0;left=0;bottom=0;right=0;editable=1;overflow=hidden;whiteSpace=wrap;html=1;strokeColor=#d79b00;fontFamily=Helvetica;fontSize=12;fontColor=default;startSize=30;" vertex="1" parent="0d2i7ZcnWRZ4m1nRk_Io-4">
          <mxGeometry width="30" height="30" as="geometry">
            <mxRectangle width="30" height="30" as="alternateBounds" />
          </mxGeometry>
        </mxCell>
        <mxCell id="0d2i7ZcnWRZ4m1nRk_Io-6" value="destination: Object" style="shape=partialRectangle;connectable=0;fillColor=none;top=0;left=0;bottom=0;right=0;align=left;spacingLeft=6;overflow=hidden;whiteSpace=wrap;html=1;strokeColor=#d79b00;fontFamily=Helvetica;fontSize=12;fontColor=default;startSize=30;" vertex="1" parent="0d2i7ZcnWRZ4m1nRk_Io-4">
          <mxGeometry x="30" width="230" height="30" as="geometry">
            <mxRectangle width="230" height="30" as="alternateBounds" />
          </mxGeometry>
        </mxCell>
        <mxCell id="3bujCkTI3dHCWaHLoJvc-69" value="" style="shape=tableRow;horizontal=0;startSize=0;swimlaneHead=0;swimlaneBody=0;fillColor=none;collapsible=0;dropTarget=0;points=[[0,0.5],[1,0.5]];portConstraint=eastwest;top=0;left=0;right=0;bottom=0;strokeColor=#d79b00;fontFamily=Helvetica;fontSize=12;fontColor=default;html=1;" vertex="1" parent="o50DH5vK2s1su8xFmBfq-53">
          <mxGeometry y="330" width="260" height="30" as="geometry" />
        </mxCell>
        <mxCell id="3bujCkTI3dHCWaHLoJvc-70" value="" style="shape=partialRectangle;connectable=0;fillColor=none;top=0;left=0;bottom=0;right=0;editable=1;overflow=hidden;whiteSpace=wrap;html=1;strokeColor=#d79b00;fontFamily=Helvetica;fontSize=12;fontColor=default;startSize=30;" vertex="1" parent="3bujCkTI3dHCWaHLoJvc-69">
          <mxGeometry width="30" height="30" as="geometry">
            <mxRectangle width="30" height="30" as="alternateBounds" />
          </mxGeometry>
        </mxCell>
        <mxCell id="3bujCkTI3dHCWaHLoJvc-71" value="distance:double" style="shape=partialRectangle;connectable=0;fillColor=none;top=0;left=0;bottom=0;right=0;align=left;spacingLeft=6;overflow=hidden;whiteSpace=wrap;html=1;strokeColor=#d79b00;fontFamily=Helvetica;fontSize=12;fontColor=default;startSize=30;" vertex="1" parent="3bujCkTI3dHCWaHLoJvc-69">
          <mxGeometry x="30" width="230" height="30" as="geometry">
            <mxRectangle width="230" height="30" as="alternateBounds" />
          </mxGeometry>
        </mxCell>
        <mxCell id="3bujCkTI3dHCWaHLoJvc-72" value="" style="shape=tableRow;horizontal=0;startSize=0;swimlaneHead=0;swimlaneBody=0;fillColor=none;collapsible=0;dropTarget=0;points=[[0,0.5],[1,0.5]];portConstraint=eastwest;top=0;left=0;right=0;bottom=0;strokeColor=#d79b00;fontFamily=Helvetica;fontSize=12;fontColor=default;html=1;" vertex="1" parent="o50DH5vK2s1su8xFmBfq-53">
          <mxGeometry y="360" width="260" height="40" as="geometry" />
        </mxCell>
        <mxCell id="3bujCkTI3dHCWaHLoJvc-73" value="" style="shape=partialRectangle;connectable=0;fillColor=none;top=0;left=0;bottom=0;right=0;editable=1;overflow=hidden;whiteSpace=wrap;html=1;strokeColor=#d79b00;fontFamily=Helvetica;fontSize=12;fontColor=default;startSize=30;" vertex="1" parent="3bujCkTI3dHCWaHLoJvc-72">
          <mxGeometry width="30" height="40" as="geometry">
            <mxRectangle width="30" height="40" as="alternateBounds" />
          </mxGeometry>
        </mxCell>
        <mxCell id="3bujCkTI3dHCWaHLoJvc-74" value="deliveryDate:date" style="shape=partialRectangle;connectable=0;fillColor=none;top=0;left=0;bottom=0;right=0;align=left;spacingLeft=6;overflow=hidden;whiteSpace=wrap;html=1;strokeColor=#d79b00;fontFamily=Helvetica;fontSize=12;fontColor=default;startSize=30;" vertex="1" parent="3bujCkTI3dHCWaHLoJvc-72">
          <mxGeometry x="30" width="230" height="40" as="geometry">
            <mxRectangle width="230" height="40" as="alternateBounds" />
          </mxGeometry>
        </mxCell>
        <mxCell id="3bujCkTI3dHCWaHLoJvc-78" value="" style="shape=tableRow;horizontal=0;startSize=0;swimlaneHead=0;swimlaneBody=0;fillColor=none;collapsible=0;dropTarget=0;points=[[0,0.5],[1,0.5]];portConstraint=eastwest;top=0;left=0;right=0;bottom=0;strokeColor=#d79b00;fontFamily=Helvetica;fontSize=12;fontColor=default;html=1;" vertex="1" parent="o50DH5vK2s1su8xFmBfq-53">
          <mxGeometry y="400" width="260" height="30" as="geometry" />
        </mxCell>
        <mxCell id="3bujCkTI3dHCWaHLoJvc-79" value="" style="shape=partialRectangle;connectable=0;fillColor=none;top=0;left=0;bottom=0;right=0;editable=1;overflow=hidden;whiteSpace=wrap;html=1;strokeColor=#d79b00;fontFamily=Helvetica;fontSize=12;fontColor=default;startSize=30;" vertex="1" parent="3bujCkTI3dHCWaHLoJvc-78">
          <mxGeometry width="30" height="30" as="geometry">
            <mxRectangle width="30" height="30" as="alternateBounds" />
          </mxGeometry>
        </mxCell>
        <mxCell id="3bujCkTI3dHCWaHLoJvc-80" value="isCompleted: bool" style="shape=partialRectangle;connectable=0;fillColor=none;top=0;left=0;bottom=0;right=0;align=left;spacingLeft=6;overflow=hidden;whiteSpace=wrap;html=1;strokeColor=#d79b00;fontFamily=Helvetica;fontSize=12;fontColor=default;startSize=30;" vertex="1" parent="3bujCkTI3dHCWaHLoJvc-78">
          <mxGeometry x="30" width="230" height="30" as="geometry">
            <mxRectangle width="230" height="30" as="alternateBounds" />
          </mxGeometry>
        </mxCell>
        <mxCell id="3bujCkTI3dHCWaHLoJvc-81" value="" style="shape=tableRow;horizontal=0;startSize=0;swimlaneHead=0;swimlaneBody=0;fillColor=none;collapsible=0;dropTarget=0;points=[[0,0.5],[1,0.5]];portConstraint=eastwest;top=0;left=0;right=0;bottom=0;strokeColor=#d79b00;fontFamily=Helvetica;fontSize=12;fontColor=default;html=1;" vertex="1" parent="o50DH5vK2s1su8xFmBfq-53">
          <mxGeometry y="430" width="260" height="30" as="geometry" />
        </mxCell>
        <mxCell id="3bujCkTI3dHCWaHLoJvc-82" value="" style="shape=partialRectangle;connectable=0;fillColor=none;top=0;left=0;bottom=0;right=0;editable=1;overflow=hidden;whiteSpace=wrap;html=1;strokeColor=#d79b00;fontFamily=Helvetica;fontSize=12;fontColor=default;startSize=30;" vertex="1" parent="3bujCkTI3dHCWaHLoJvc-81">
          <mxGeometry width="30" height="30" as="geometry">
            <mxRectangle width="30" height="30" as="alternateBounds" />
          </mxGeometry>
        </mxCell>
        <mxCell id="3bujCkTI3dHCWaHLoJvc-83" value="cargoCost:double" style="shape=partialRectangle;connectable=0;fillColor=none;top=0;left=0;bottom=0;right=0;align=left;spacingLeft=6;overflow=hidden;whiteSpace=wrap;html=1;strokeColor=#d79b00;fontFamily=Helvetica;fontSize=12;fontColor=default;startSize=30;" vertex="1" parent="3bujCkTI3dHCWaHLoJvc-81">
          <mxGeometry x="30" width="230" height="30" as="geometry">
            <mxRectangle width="230" height="30" as="alternateBounds" />
          </mxGeometry>
        </mxCell>
        <mxCell id="nlUxa3fVQoRvI8ThVAe_-1" value="" style="shape=tableRow;horizontal=0;startSize=0;swimlaneHead=0;swimlaneBody=0;fillColor=none;collapsible=0;dropTarget=0;points=[[0,0.5],[1,0.5]];portConstraint=eastwest;top=0;left=0;right=0;bottom=0;strokeColor=#d79b00;fontFamily=Helvetica;fontSize=12;fontColor=default;html=1;" vertex="1" parent="o50DH5vK2s1su8xFmBfq-53">
          <mxGeometry y="460" width="260" height="30" as="geometry" />
        </mxCell>
        <mxCell id="nlUxa3fVQoRvI8ThVAe_-2" value="" style="shape=partialRectangle;connectable=0;fillColor=none;top=0;left=0;bottom=0;right=0;editable=1;overflow=hidden;whiteSpace=wrap;html=1;strokeColor=#d79b00;fontFamily=Helvetica;fontSize=12;fontColor=default;startSize=30;" vertex="1" parent="nlUxa3fVQoRvI8ThVAe_-1">
          <mxGeometry width="30" height="30" as="geometry">
            <mxRectangle width="30" height="30" as="alternateBounds" />
          </mxGeometry>
        </mxCell>
        <mxCell id="nlUxa3fVQoRvI8ThVAe_-3" value="&lt;font color=&quot;#ff0000&quot;&gt;statesLog:Object [ ]&lt;/font&gt;" style="shape=partialRectangle;connectable=0;fillColor=none;top=0;left=0;bottom=0;right=0;align=left;spacingLeft=6;overflow=hidden;whiteSpace=wrap;html=1;strokeColor=#d79b00;fontFamily=Helvetica;fontSize=12;fontColor=default;startSize=30;" vertex="1" parent="nlUxa3fVQoRvI8ThVAe_-1">
          <mxGeometry x="30" width="230" height="30" as="geometry">
            <mxRectangle width="230" height="30" as="alternateBounds" />
          </mxGeometry>
        </mxCell>
        <mxCell id="0d2i7ZcnWRZ4m1nRk_Io-11" value="" style="shape=tableRow;horizontal=0;startSize=0;swimlaneHead=0;swimlaneBody=0;fillColor=none;collapsible=0;dropTarget=0;points=[[0,0.5],[1,0.5]];portConstraint=eastwest;top=0;left=0;right=0;bottom=0;strokeColor=#d79b00;fontFamily=Helvetica;fontSize=12;fontColor=default;html=1;" vertex="1" parent="o50DH5vK2s1su8xFmBfq-53">
          <mxGeometry y="490" width="260" height="30" as="geometry" />
        </mxCell>
        <mxCell id="0d2i7ZcnWRZ4m1nRk_Io-12" value="" style="shape=partialRectangle;connectable=0;fillColor=none;top=0;left=0;bottom=0;right=0;editable=1;overflow=hidden;whiteSpace=wrap;html=1;strokeColor=#d79b00;fontFamily=Helvetica;fontSize=12;fontColor=default;startSize=30;" vertex="1" parent="0d2i7ZcnWRZ4m1nRk_Io-11">
          <mxGeometry width="30" height="30" as="geometry">
            <mxRectangle width="30" height="30" as="alternateBounds" />
          </mxGeometry>
        </mxCell>
        <mxCell id="0d2i7ZcnWRZ4m1nRk_Io-13" value="lastState: string //state" style="shape=partialRectangle;connectable=0;fillColor=none;top=0;left=0;bottom=0;right=0;align=left;spacingLeft=6;overflow=hidden;whiteSpace=wrap;html=1;strokeColor=#d79b00;fontFamily=Helvetica;fontSize=12;fontColor=default;startSize=30;" vertex="1" parent="0d2i7ZcnWRZ4m1nRk_Io-11">
          <mxGeometry x="30" width="230" height="30" as="geometry">
            <mxRectangle width="230" height="30" as="alternateBounds" />
          </mxGeometry>
        </mxCell>
        <mxCell id="3bujCkTI3dHCWaHLoJvc-93" value="" style="shape=tableRow;horizontal=0;startSize=0;swimlaneHead=0;swimlaneBody=0;fillColor=none;collapsible=0;dropTarget=0;points=[[0,0.5],[1,0.5]];portConstraint=eastwest;top=0;left=0;right=0;bottom=0;strokeColor=#d79b00;fontFamily=Helvetica;fontSize=12;fontColor=default;html=1;" vertex="1" parent="o50DH5vK2s1su8xFmBfq-53">
          <mxGeometry y="520" width="260" height="30" as="geometry" />
        </mxCell>
        <mxCell id="3bujCkTI3dHCWaHLoJvc-94" value="" style="shape=partialRectangle;connectable=0;fillColor=none;top=0;left=0;bottom=0;right=0;editable=1;overflow=hidden;whiteSpace=wrap;html=1;strokeColor=#d79b00;fontFamily=Helvetica;fontSize=12;fontColor=default;startSize=30;" vertex="1" parent="3bujCkTI3dHCWaHLoJvc-93">
          <mxGeometry width="30" height="30" as="geometry">
            <mxRectangle width="30" height="30" as="alternateBounds" />
          </mxGeometry>
        </mxCell>
        <mxCell id="3bujCkTI3dHCWaHLoJvc-95" value="carrierID:string " style="shape=partialRectangle;connectable=0;fillColor=none;top=0;left=0;bottom=0;right=0;align=left;spacingLeft=6;overflow=hidden;whiteSpace=wrap;html=1;strokeColor=#d79b00;fontFamily=Helvetica;fontSize=12;fontColor=default;startSize=30;" vertex="1" parent="3bujCkTI3dHCWaHLoJvc-93">
          <mxGeometry x="30" width="230" height="30" as="geometry">
            <mxRectangle width="230" height="30" as="alternateBounds" />
          </mxGeometry>
        </mxCell>
        <mxCell id="TMZge0Q-a5t1ptmTiMtb-4" value="" style="shape=tableRow;horizontal=0;startSize=0;swimlaneHead=0;swimlaneBody=0;fillColor=none;collapsible=0;dropTarget=0;points=[[0,0.5],[1,0.5]];portConstraint=eastwest;top=0;left=0;right=0;bottom=0;strokeColor=#d79b00;fontFamily=Helvetica;fontSize=12;fontColor=default;html=1;" vertex="1" parent="o50DH5vK2s1su8xFmBfq-53">
          <mxGeometry y="550" width="260" height="30" as="geometry" />
        </mxCell>
        <mxCell id="TMZge0Q-a5t1ptmTiMtb-5" value="" style="shape=partialRectangle;connectable=0;fillColor=none;top=0;left=0;bottom=0;right=0;editable=1;overflow=hidden;whiteSpace=wrap;html=1;strokeColor=#d79b00;fontFamily=Helvetica;fontSize=12;fontColor=default;startSize=30;" vertex="1" parent="TMZge0Q-a5t1ptmTiMtb-4">
          <mxGeometry width="30" height="30" as="geometry">
            <mxRectangle width="30" height="30" as="alternateBounds" />
          </mxGeometry>
        </mxCell>
        <mxCell id="TMZge0Q-a5t1ptmTiMtb-6" value="invoice:(no:string,amount:double,document:string)" style="shape=partialRectangle;connectable=0;fillColor=none;top=0;left=0;bottom=0;right=0;align=left;spacingLeft=6;overflow=hidden;whiteSpace=wrap;html=1;strokeColor=#d79b00;fontFamily=Helvetica;fontSize=12;fontColor=default;startSize=30;" vertex="1" parent="TMZge0Q-a5t1ptmTiMtb-4">
          <mxGeometry x="30" width="230" height="30" as="geometry">
            <mxRectangle width="230" height="30" as="alternateBounds" />
          </mxGeometry>
        </mxCell>
        <mxCell id="dtOEaZ7rbLRQVM6c3AeH-39" value="" style="shape=tableRow;horizontal=0;startSize=0;swimlaneHead=0;swimlaneBody=0;fillColor=none;collapsible=0;dropTarget=0;points=[[0,0.5],[1,0.5]];portConstraint=eastwest;top=0;left=0;right=0;bottom=0;strokeColor=#d79b00;fontFamily=Helvetica;fontSize=12;fontColor=default;html=1;" vertex="1" parent="o50DH5vK2s1su8xFmBfq-53">
          <mxGeometry y="580" width="260" height="30" as="geometry" />
        </mxCell>
        <mxCell id="dtOEaZ7rbLRQVM6c3AeH-40" value="" style="shape=partialRectangle;connectable=0;fillColor=none;top=0;left=0;bottom=0;right=0;editable=1;overflow=hidden;whiteSpace=wrap;html=1;strokeColor=#d79b00;fontFamily=Helvetica;fontSize=12;fontColor=default;startSize=30;" vertex="1" parent="dtOEaZ7rbLRQVM6c3AeH-39">
          <mxGeometry width="30" height="30" as="geometry">
            <mxRectangle width="30" height="30" as="alternateBounds" />
          </mxGeometry>
        </mxCell>
        <mxCell id="dtOEaZ7rbLRQVM6c3AeH-41" value="&lt;font color=&quot;#ff0000&quot;&gt;offers:(cID:string, amount: double) [ ] &lt;/font&gt;" style="shape=partialRectangle;connectable=0;fillColor=none;top=0;left=0;bottom=0;right=0;align=left;spacingLeft=6;overflow=hidden;whiteSpace=wrap;html=1;strokeColor=#d79b00;fontFamily=Helvetica;fontSize=12;fontColor=default;startSize=30;" vertex="1" parent="dtOEaZ7rbLRQVM6c3AeH-39">
          <mxGeometry x="30" width="230" height="30" as="geometry">
            <mxRectangle width="230" height="30" as="alternateBounds" />
          </mxGeometry>
        </mxCell>
        <mxCell id="o50DH5vK2s1su8xFmBfq-108" value="&lt;div align=&quot;left&quot;&gt;//carriers::vehicle info&lt;/div&gt;&lt;div&gt;&lt;br&gt;&lt;/div&gt;&lt;div&gt;type: Object //make,model,year&lt;/div&gt;&lt;div&gt;picture: string&lt;/div&gt;&lt;div&gt;color: string&lt;/div&gt;&lt;div&gt;plate: string&lt;/div&gt;&lt;div&gt;registrationNo: string //ruhsat no&lt;/div&gt;&lt;div&gt;registration: string //ruhsat resmi&lt;br&gt;&lt;/div&gt;&lt;div&gt;InspectionDate:date&lt;br&gt;&lt;/div&gt;&lt;div&gt;FuelConsumption:double&lt;br&gt;&lt;/div&gt;&lt;div&gt;CarRegistrationDate:date&lt;br&gt;&lt;/div&gt;&lt;div&gt;CarProperties:String&lt;/div&gt;&lt;div&gt;CargoSelection:Object [ ]&lt;/div&gt;&lt;div&gt;CargoCapacity:double&lt;br&gt;&lt;/div&gt;" style="shape=note;size=20;whiteSpace=wrap;html=1;strokeColor=#d79b00;fontFamily=Helvetica;fontSize=12;fontColor=default;startSize=30;fillColor=#ffe6cc;align=left;" vertex="1" parent="1">
          <mxGeometry x="-1150" y="1270" width="280" height="210" as="geometry" />
        </mxCell>
        <mxCell id="o50DH5vK2s1su8xFmBfq-109" value="&lt;div&gt;Logistics app&amp;nbsp;&lt;/div&gt;&lt;div&gt;cepNak v1.2&lt;/div&gt;" style="shape=note;size=20;whiteSpace=wrap;html=1;fontFamily=Helvetica;fontSize=12;startSize=30;" vertex="1" parent="1">
          <mxGeometry x="-690" y="10" width="160" height="40" as="geometry" />
        </mxCell>
        <mxCell id="o50DH5vK2s1su8xFmBfq-114" style="edgeStyle=orthogonalEdgeStyle;rounded=0;orthogonalLoop=1;jettySize=auto;html=1;entryX=0;entryY=0.12;entryDx=0;entryDy=0;entryPerimeter=0;fontFamily=Helvetica;fontSize=12;fontColor=default;startSize=30;" edge="1" parent="1" source="o50DH5vK2s1su8xFmBfq-111" target="o50DH5vK2s1su8xFmBfq-53">
          <mxGeometry relative="1" as="geometry" />
        </mxCell>
        <mxCell id="3bujCkTI3dHCWaHLoJvc-36" value="&lt;div align=&quot;left&quot;&gt;//creditCard info&lt;/div&gt;&lt;div align=&quot;left&quot;&gt;holderName: string&lt;/div&gt;&lt;div&gt;cardNumber: string&lt;/div&gt;&lt;div&gt;cvv: string&lt;/div&gt;&lt;div&gt;expirationDate: Date&lt;/div&gt;" style="shape=note;size=20;whiteSpace=wrap;html=1;strokeColor=#d79b00;fontFamily=Helvetica;fontSize=12;fontColor=default;startSize=30;fillColor=#ffe6cc;align=left;" vertex="1" parent="1">
          <mxGeometry x="-740" y="1060" width="190" height="90" as="geometry" />
        </mxCell>
        <mxCell id="3bujCkTI3dHCWaHLoJvc-103" value="Vehicles" style="shape=table;startSize=30;container=1;collapsible=1;childLayout=tableLayout;fixedRows=1;rowLines=0;fontStyle=1;align=center;resizeLast=1;html=1;strokeColor=#d79b00;fontFamily=Helvetica;fontSize=12;fontColor=default;fillColor=#ffe6cc;" vertex="1" parent="1">
          <mxGeometry x="-400" y="730" width="210" height="480" as="geometry">
            <mxRectangle x="-400" y="1290" width="90" height="30" as="alternateBounds" />
          </mxGeometry>
        </mxCell>
        <mxCell id="3bujCkTI3dHCWaHLoJvc-104" value="" style="shape=tableRow;horizontal=0;startSize=0;swimlaneHead=0;swimlaneBody=0;fillColor=none;collapsible=0;dropTarget=0;points=[[0,0.5],[1,0.5]];portConstraint=eastwest;top=0;left=0;right=0;bottom=1;strokeColor=#d79b00;fontFamily=Helvetica;fontSize=12;fontColor=default;html=1;" vertex="1" parent="3bujCkTI3dHCWaHLoJvc-103">
          <mxGeometry y="30" width="210" height="30" as="geometry" />
        </mxCell>
        <mxCell id="3bujCkTI3dHCWaHLoJvc-105" value="PK" style="shape=partialRectangle;connectable=0;fillColor=none;top=0;left=0;bottom=0;right=0;fontStyle=1;overflow=hidden;whiteSpace=wrap;html=1;strokeColor=#d79b00;fontFamily=Helvetica;fontSize=12;fontColor=default;startSize=30;" vertex="1" parent="3bujCkTI3dHCWaHLoJvc-104">
          <mxGeometry width="30" height="30" as="geometry">
            <mxRectangle width="30" height="30" as="alternateBounds" />
          </mxGeometry>
        </mxCell>
        <mxCell id="3bujCkTI3dHCWaHLoJvc-106" value="_cID:string" style="shape=partialRectangle;connectable=0;fillColor=none;top=0;left=0;bottom=0;right=0;align=left;spacingLeft=6;fontStyle=5;overflow=hidden;whiteSpace=wrap;html=1;strokeColor=#d79b00;fontFamily=Helvetica;fontSize=12;fontColor=default;startSize=30;" vertex="1" parent="3bujCkTI3dHCWaHLoJvc-104">
          <mxGeometry x="30" width="180" height="30" as="geometry">
            <mxRectangle width="180" height="30" as="alternateBounds" />
          </mxGeometry>
        </mxCell>
        <mxCell id="3bujCkTI3dHCWaHLoJvc-107" value="" style="shape=tableRow;horizontal=0;startSize=0;swimlaneHead=0;swimlaneBody=0;fillColor=none;collapsible=0;dropTarget=0;points=[[0,0.5],[1,0.5]];portConstraint=eastwest;top=0;left=0;right=0;bottom=0;strokeColor=#d79b00;fontFamily=Helvetica;fontSize=12;fontColor=default;html=1;" vertex="1" parent="3bujCkTI3dHCWaHLoJvc-103">
          <mxGeometry y="60" width="210" height="30" as="geometry" />
        </mxCell>
        <mxCell id="3bujCkTI3dHCWaHLoJvc-108" value="" style="shape=partialRectangle;connectable=0;fillColor=none;top=0;left=0;bottom=0;right=0;editable=1;overflow=hidden;whiteSpace=wrap;html=1;strokeColor=#d79b00;fontFamily=Helvetica;fontSize=12;fontColor=default;startSize=30;" vertex="1" parent="3bujCkTI3dHCWaHLoJvc-107">
          <mxGeometry width="30" height="30" as="geometry">
            <mxRectangle width="30" height="30" as="alternateBounds" />
          </mxGeometry>
        </mxCell>
        <mxCell id="3bujCkTI3dHCWaHLoJvc-109" value="plate: string" style="shape=partialRectangle;connectable=0;fillColor=none;top=0;left=0;bottom=0;right=0;align=left;spacingLeft=6;overflow=hidden;whiteSpace=wrap;html=1;strokeColor=#d79b00;fontFamily=Helvetica;fontSize=12;fontColor=default;startSize=30;" vertex="1" parent="3bujCkTI3dHCWaHLoJvc-107">
          <mxGeometry x="30" width="180" height="30" as="geometry">
            <mxRectangle width="180" height="30" as="alternateBounds" />
          </mxGeometry>
        </mxCell>
        <mxCell id="3bujCkTI3dHCWaHLoJvc-110" value="" style="shape=tableRow;horizontal=0;startSize=0;swimlaneHead=0;swimlaneBody=0;fillColor=none;collapsible=0;dropTarget=0;points=[[0,0.5],[1,0.5]];portConstraint=eastwest;top=0;left=0;right=0;bottom=0;strokeColor=#d79b00;fontFamily=Helvetica;fontSize=12;fontColor=default;html=1;" vertex="1" parent="3bujCkTI3dHCWaHLoJvc-103">
          <mxGeometry y="90" width="210" height="30" as="geometry" />
        </mxCell>
        <mxCell id="3bujCkTI3dHCWaHLoJvc-111" value="" style="shape=partialRectangle;connectable=0;fillColor=none;top=0;left=0;bottom=0;right=0;editable=1;overflow=hidden;whiteSpace=wrap;html=1;strokeColor=#d79b00;fontFamily=Helvetica;fontSize=12;fontColor=default;startSize=30;" vertex="1" parent="3bujCkTI3dHCWaHLoJvc-110">
          <mxGeometry width="30" height="30" as="geometry">
            <mxRectangle width="30" height="30" as="alternateBounds" />
          </mxGeometry>
        </mxCell>
        <mxCell id="3bujCkTI3dHCWaHLoJvc-112" value="picture: string [ ]" style="shape=partialRectangle;connectable=0;fillColor=none;top=0;left=0;bottom=0;right=0;align=left;spacingLeft=6;overflow=hidden;whiteSpace=wrap;html=1;strokeColor=#d79b00;fontFamily=Helvetica;fontSize=12;fontColor=default;startSize=30;" vertex="1" parent="3bujCkTI3dHCWaHLoJvc-110">
          <mxGeometry x="30" width="180" height="30" as="geometry">
            <mxRectangle width="180" height="30" as="alternateBounds" />
          </mxGeometry>
        </mxCell>
        <mxCell id="3bujCkTI3dHCWaHLoJvc-191" value="" style="shape=tableRow;horizontal=0;startSize=0;swimlaneHead=0;swimlaneBody=0;fillColor=none;collapsible=0;dropTarget=0;points=[[0,0.5],[1,0.5]];portConstraint=eastwest;top=0;left=0;right=0;bottom=0;strokeColor=#d79b00;fontFamily=Helvetica;fontSize=12;fontColor=default;html=1;" vertex="1" parent="3bujCkTI3dHCWaHLoJvc-103">
          <mxGeometry y="120" width="210" height="30" as="geometry" />
        </mxCell>
        <mxCell id="3bujCkTI3dHCWaHLoJvc-192" value="" style="shape=partialRectangle;connectable=0;fillColor=none;top=0;left=0;bottom=0;right=0;editable=1;overflow=hidden;whiteSpace=wrap;html=1;strokeColor=#d79b00;fontFamily=Helvetica;fontSize=12;fontColor=default;startSize=30;" vertex="1" parent="3bujCkTI3dHCWaHLoJvc-191">
          <mxGeometry width="30" height="30" as="geometry">
            <mxRectangle width="30" height="30" as="alternateBounds" />
          </mxGeometry>
        </mxCell>
        <mxCell id="3bujCkTI3dHCWaHLoJvc-193" value="type:String" style="shape=partialRectangle;connectable=0;fillColor=none;top=0;left=0;bottom=0;right=0;align=left;spacingLeft=6;overflow=hidden;whiteSpace=wrap;html=1;strokeColor=#d79b00;fontFamily=Helvetica;fontSize=12;fontColor=default;startSize=30;" vertex="1" parent="3bujCkTI3dHCWaHLoJvc-191">
          <mxGeometry x="30" width="180" height="30" as="geometry">
            <mxRectangle width="180" height="30" as="alternateBounds" />
          </mxGeometry>
        </mxCell>
        <mxCell id="3bujCkTI3dHCWaHLoJvc-113" value="" style="shape=tableRow;horizontal=0;startSize=0;swimlaneHead=0;swimlaneBody=0;fillColor=none;collapsible=0;dropTarget=0;points=[[0,0.5],[1,0.5]];portConstraint=eastwest;top=0;left=0;right=0;bottom=0;strokeColor=#d79b00;fontFamily=Helvetica;fontSize=12;fontColor=default;html=1;" vertex="1" parent="3bujCkTI3dHCWaHLoJvc-103">
          <mxGeometry y="150" width="210" height="30" as="geometry" />
        </mxCell>
        <mxCell id="3bujCkTI3dHCWaHLoJvc-114" value="" style="shape=partialRectangle;connectable=0;fillColor=none;top=0;left=0;bottom=0;right=0;editable=1;overflow=hidden;whiteSpace=wrap;html=1;strokeColor=#d79b00;fontFamily=Helvetica;fontSize=12;fontColor=default;startSize=30;" vertex="1" parent="3bujCkTI3dHCWaHLoJvc-113">
          <mxGeometry width="30" height="30" as="geometry">
            <mxRectangle width="30" height="30" as="alternateBounds" />
          </mxGeometry>
        </mxCell>
        <mxCell id="3bujCkTI3dHCWaHLoJvc-115" value="&lt;div&gt;&lt;span style=&quot;background-color: initial;&quot;&gt;color: string&lt;/span&gt;&lt;br&gt;&lt;/div&gt;" style="shape=partialRectangle;connectable=0;fillColor=none;top=0;left=0;bottom=0;right=0;align=left;spacingLeft=6;overflow=hidden;whiteSpace=wrap;html=1;strokeColor=#d79b00;fontFamily=Helvetica;fontSize=12;fontColor=default;startSize=30;" vertex="1" parent="3bujCkTI3dHCWaHLoJvc-113">
          <mxGeometry x="30" width="180" height="30" as="geometry">
            <mxRectangle width="180" height="30" as="alternateBounds" />
          </mxGeometry>
        </mxCell>
        <mxCell id="3bujCkTI3dHCWaHLoJvc-116" value="" style="shape=tableRow;horizontal=0;startSize=0;swimlaneHead=0;swimlaneBody=0;fillColor=none;collapsible=0;dropTarget=0;points=[[0,0.5],[1,0.5]];portConstraint=eastwest;top=0;left=0;right=0;bottom=0;strokeColor=#d79b00;fontFamily=Helvetica;fontSize=12;fontColor=default;html=1;" vertex="1" parent="3bujCkTI3dHCWaHLoJvc-103">
          <mxGeometry y="180" width="210" height="30" as="geometry" />
        </mxCell>
        <mxCell id="3bujCkTI3dHCWaHLoJvc-117" value="" style="shape=partialRectangle;connectable=0;fillColor=none;top=0;left=0;bottom=0;right=0;editable=1;overflow=hidden;whiteSpace=wrap;html=1;strokeColor=#d79b00;fontFamily=Helvetica;fontSize=12;fontColor=default;startSize=30;" vertex="1" parent="3bujCkTI3dHCWaHLoJvc-116">
          <mxGeometry width="30" height="30" as="geometry">
            <mxRectangle width="30" height="30" as="alternateBounds" />
          </mxGeometry>
        </mxCell>
        <mxCell id="3bujCkTI3dHCWaHLoJvc-118" value="registrationNo: string" style="shape=partialRectangle;connectable=0;fillColor=none;top=0;left=0;bottom=0;right=0;align=left;spacingLeft=6;overflow=hidden;whiteSpace=wrap;html=1;strokeColor=#d79b00;fontFamily=Helvetica;fontSize=12;fontColor=default;startSize=30;" vertex="1" parent="3bujCkTI3dHCWaHLoJvc-116">
          <mxGeometry x="30" width="180" height="30" as="geometry">
            <mxRectangle width="180" height="30" as="alternateBounds" />
          </mxGeometry>
        </mxCell>
        <mxCell id="3bujCkTI3dHCWaHLoJvc-119" value="" style="shape=tableRow;horizontal=0;startSize=0;swimlaneHead=0;swimlaneBody=0;fillColor=none;collapsible=0;dropTarget=0;points=[[0,0.5],[1,0.5]];portConstraint=eastwest;top=0;left=0;right=0;bottom=0;strokeColor=#d79b00;fontFamily=Helvetica;fontSize=12;fontColor=default;html=1;" vertex="1" parent="3bujCkTI3dHCWaHLoJvc-103">
          <mxGeometry y="210" width="210" height="30" as="geometry" />
        </mxCell>
        <mxCell id="3bujCkTI3dHCWaHLoJvc-120" value="" style="shape=partialRectangle;connectable=0;fillColor=none;top=0;left=0;bottom=0;right=0;editable=1;overflow=hidden;whiteSpace=wrap;html=1;strokeColor=#d79b00;fontFamily=Helvetica;fontSize=12;fontColor=default;startSize=30;" vertex="1" parent="3bujCkTI3dHCWaHLoJvc-119">
          <mxGeometry width="30" height="30" as="geometry">
            <mxRectangle width="30" height="30" as="alternateBounds" />
          </mxGeometry>
        </mxCell>
        <mxCell id="3bujCkTI3dHCWaHLoJvc-121" value="&lt;font color=&quot;#ff0000&quot;&gt;documents: (string,string) [ ]&lt;/font&gt;" style="shape=partialRectangle;connectable=0;fillColor=none;top=0;left=0;bottom=0;right=0;align=left;spacingLeft=6;overflow=hidden;whiteSpace=wrap;html=1;strokeColor=#d79b00;fontFamily=Helvetica;fontSize=12;fontColor=default;startSize=30;" vertex="1" parent="3bujCkTI3dHCWaHLoJvc-119">
          <mxGeometry x="30" width="180" height="30" as="geometry">
            <mxRectangle width="180" height="30" as="alternateBounds" />
          </mxGeometry>
        </mxCell>
        <mxCell id="3bujCkTI3dHCWaHLoJvc-128" value="" style="shape=tableRow;horizontal=0;startSize=0;swimlaneHead=0;swimlaneBody=0;fillColor=none;collapsible=0;dropTarget=0;points=[[0,0.5],[1,0.5]];portConstraint=eastwest;top=0;left=0;right=0;bottom=0;strokeColor=#d79b00;fontFamily=Helvetica;fontSize=12;fontColor=default;html=1;" vertex="1" parent="3bujCkTI3dHCWaHLoJvc-103">
          <mxGeometry y="240" width="210" height="30" as="geometry" />
        </mxCell>
        <mxCell id="3bujCkTI3dHCWaHLoJvc-129" value="" style="shape=partialRectangle;connectable=0;fillColor=none;top=0;left=0;bottom=0;right=0;editable=1;overflow=hidden;whiteSpace=wrap;html=1;strokeColor=#d79b00;fontFamily=Helvetica;fontSize=12;fontColor=default;startSize=30;" vertex="1" parent="3bujCkTI3dHCWaHLoJvc-128">
          <mxGeometry width="30" height="30" as="geometry">
            <mxRectangle width="30" height="30" as="alternateBounds" />
          </mxGeometry>
        </mxCell>
        <mxCell id="3bujCkTI3dHCWaHLoJvc-130" value="registrationDate:Date" style="shape=partialRectangle;connectable=0;fillColor=none;top=0;left=0;bottom=0;right=0;align=left;spacingLeft=6;overflow=hidden;whiteSpace=wrap;html=1;strokeColor=#d79b00;fontFamily=Helvetica;fontSize=12;fontColor=default;startSize=30;" vertex="1" parent="3bujCkTI3dHCWaHLoJvc-128">
          <mxGeometry x="30" width="180" height="30" as="geometry">
            <mxRectangle width="180" height="30" as="alternateBounds" />
          </mxGeometry>
        </mxCell>
        <mxCell id="3bujCkTI3dHCWaHLoJvc-122" value="" style="shape=tableRow;horizontal=0;startSize=0;swimlaneHead=0;swimlaneBody=0;fillColor=none;collapsible=0;dropTarget=0;points=[[0,0.5],[1,0.5]];portConstraint=eastwest;top=0;left=0;right=0;bottom=0;strokeColor=#d79b00;fontFamily=Helvetica;fontSize=12;fontColor=default;html=1;" vertex="1" parent="3bujCkTI3dHCWaHLoJvc-103">
          <mxGeometry y="270" width="210" height="30" as="geometry" />
        </mxCell>
        <mxCell id="3bujCkTI3dHCWaHLoJvc-123" value="" style="shape=partialRectangle;connectable=0;fillColor=none;top=0;left=0;bottom=0;right=0;editable=1;overflow=hidden;whiteSpace=wrap;html=1;strokeColor=#d79b00;fontFamily=Helvetica;fontSize=12;fontColor=default;startSize=30;" vertex="1" parent="3bujCkTI3dHCWaHLoJvc-122">
          <mxGeometry width="30" height="30" as="geometry">
            <mxRectangle width="30" height="30" as="alternateBounds" />
          </mxGeometry>
        </mxCell>
        <mxCell id="3bujCkTI3dHCWaHLoJvc-124" value="inspectionDate:Date" style="shape=partialRectangle;connectable=0;fillColor=none;top=0;left=0;bottom=0;right=0;align=left;spacingLeft=6;overflow=hidden;whiteSpace=wrap;html=1;strokeColor=#d79b00;fontFamily=Helvetica;fontSize=12;fontColor=default;startSize=30;" vertex="1" parent="3bujCkTI3dHCWaHLoJvc-122">
          <mxGeometry x="30" width="180" height="30" as="geometry">
            <mxRectangle width="180" height="30" as="alternateBounds" />
          </mxGeometry>
        </mxCell>
        <mxCell id="3bujCkTI3dHCWaHLoJvc-125" value="" style="shape=tableRow;horizontal=0;startSize=0;swimlaneHead=0;swimlaneBody=0;fillColor=none;collapsible=0;dropTarget=0;points=[[0,0.5],[1,0.5]];portConstraint=eastwest;top=0;left=0;right=0;bottom=0;strokeColor=#d79b00;fontFamily=Helvetica;fontSize=12;fontColor=default;html=1;" vertex="1" parent="3bujCkTI3dHCWaHLoJvc-103">
          <mxGeometry y="300" width="210" height="30" as="geometry" />
        </mxCell>
        <mxCell id="3bujCkTI3dHCWaHLoJvc-126" value="" style="shape=partialRectangle;connectable=0;fillColor=none;top=0;left=0;bottom=0;right=0;editable=1;overflow=hidden;whiteSpace=wrap;html=1;strokeColor=#d79b00;fontFamily=Helvetica;fontSize=12;fontColor=default;startSize=30;" vertex="1" parent="3bujCkTI3dHCWaHLoJvc-125">
          <mxGeometry width="30" height="30" as="geometry">
            <mxRectangle width="30" height="30" as="alternateBounds" />
          </mxGeometry>
        </mxCell>
        <mxCell id="3bujCkTI3dHCWaHLoJvc-127" value="fuelConsumption:double" style="shape=partialRectangle;connectable=0;fillColor=none;top=0;left=0;bottom=0;right=0;align=left;spacingLeft=6;overflow=hidden;whiteSpace=wrap;html=1;strokeColor=#d79b00;fontFamily=Helvetica;fontSize=12;fontColor=default;startSize=30;" vertex="1" parent="3bujCkTI3dHCWaHLoJvc-125">
          <mxGeometry x="30" width="180" height="30" as="geometry">
            <mxRectangle width="180" height="30" as="alternateBounds" />
          </mxGeometry>
        </mxCell>
        <mxCell id="3bujCkTI3dHCWaHLoJvc-131" value="" style="shape=tableRow;horizontal=0;startSize=0;swimlaneHead=0;swimlaneBody=0;fillColor=none;collapsible=0;dropTarget=0;points=[[0,0.5],[1,0.5]];portConstraint=eastwest;top=0;left=0;right=0;bottom=0;strokeColor=#d79b00;fontFamily=Helvetica;fontSize=12;fontColor=default;html=1;" vertex="1" parent="3bujCkTI3dHCWaHLoJvc-103">
          <mxGeometry y="330" width="210" height="30" as="geometry" />
        </mxCell>
        <mxCell id="3bujCkTI3dHCWaHLoJvc-132" value="" style="shape=partialRectangle;connectable=0;fillColor=none;top=0;left=0;bottom=0;right=0;editable=1;overflow=hidden;whiteSpace=wrap;html=1;strokeColor=#d79b00;fontFamily=Helvetica;fontSize=12;fontColor=default;startSize=30;" vertex="1" parent="3bujCkTI3dHCWaHLoJvc-131">
          <mxGeometry width="30" height="30" as="geometry">
            <mxRectangle width="30" height="30" as="alternateBounds" />
          </mxGeometry>
        </mxCell>
        <mxCell id="3bujCkTI3dHCWaHLoJvc-133" value="properties:string" style="shape=partialRectangle;connectable=0;fillColor=none;top=0;left=0;bottom=0;right=0;align=left;spacingLeft=6;overflow=hidden;whiteSpace=wrap;html=1;strokeColor=#d79b00;fontFamily=Helvetica;fontSize=12;fontColor=default;startSize=30;" vertex="1" parent="3bujCkTI3dHCWaHLoJvc-131">
          <mxGeometry x="30" width="180" height="30" as="geometry">
            <mxRectangle width="180" height="30" as="alternateBounds" />
          </mxGeometry>
        </mxCell>
        <mxCell id="3bujCkTI3dHCWaHLoJvc-134" value="" style="shape=tableRow;horizontal=0;startSize=0;swimlaneHead=0;swimlaneBody=0;fillColor=none;collapsible=0;dropTarget=0;points=[[0,0.5],[1,0.5]];portConstraint=eastwest;top=0;left=0;right=0;bottom=0;strokeColor=#d79b00;fontFamily=Helvetica;fontSize=12;fontColor=default;html=1;" vertex="1" parent="3bujCkTI3dHCWaHLoJvc-103">
          <mxGeometry y="360" width="210" height="30" as="geometry" />
        </mxCell>
        <mxCell id="3bujCkTI3dHCWaHLoJvc-135" value="" style="shape=partialRectangle;connectable=0;fillColor=none;top=0;left=0;bottom=0;right=0;editable=1;overflow=hidden;whiteSpace=wrap;html=1;strokeColor=#d79b00;fontFamily=Helvetica;fontSize=12;fontColor=default;startSize=30;" vertex="1" parent="3bujCkTI3dHCWaHLoJvc-134">
          <mxGeometry width="30" height="30" as="geometry">
            <mxRectangle width="30" height="30" as="alternateBounds" />
          </mxGeometry>
        </mxCell>
        <mxCell id="3bujCkTI3dHCWaHLoJvc-136" value="capacity:double" style="shape=partialRectangle;connectable=0;fillColor=none;top=0;left=0;bottom=0;right=0;align=left;spacingLeft=6;overflow=hidden;whiteSpace=wrap;html=1;strokeColor=#d79b00;fontFamily=Helvetica;fontSize=12;fontColor=default;startSize=30;" vertex="1" parent="3bujCkTI3dHCWaHLoJvc-134">
          <mxGeometry x="30" width="180" height="30" as="geometry">
            <mxRectangle width="180" height="30" as="alternateBounds" />
          </mxGeometry>
        </mxCell>
        <mxCell id="3bujCkTI3dHCWaHLoJvc-194" value="" style="shape=tableRow;horizontal=0;startSize=0;swimlaneHead=0;swimlaneBody=0;fillColor=none;collapsible=0;dropTarget=0;points=[[0,0.5],[1,0.5]];portConstraint=eastwest;top=0;left=0;right=0;bottom=0;strokeColor=#d79b00;fontFamily=Helvetica;fontSize=12;fontColor=default;html=1;" vertex="1" parent="3bujCkTI3dHCWaHLoJvc-103">
          <mxGeometry y="390" width="210" height="30" as="geometry" />
        </mxCell>
        <mxCell id="3bujCkTI3dHCWaHLoJvc-195" value="" style="shape=partialRectangle;connectable=0;fillColor=none;top=0;left=0;bottom=0;right=0;editable=1;overflow=hidden;whiteSpace=wrap;html=1;strokeColor=#d79b00;fontFamily=Helvetica;fontSize=12;fontColor=default;startSize=30;" vertex="1" parent="3bujCkTI3dHCWaHLoJvc-194">
          <mxGeometry width="30" height="30" as="geometry">
            <mxRectangle width="30" height="30" as="alternateBounds" />
          </mxGeometry>
        </mxCell>
        <mxCell id="3bujCkTI3dHCWaHLoJvc-196" value="openTruck:bool" style="shape=partialRectangle;connectable=0;fillColor=none;top=0;left=0;bottom=0;right=0;align=left;spacingLeft=6;overflow=hidden;whiteSpace=wrap;html=1;strokeColor=#d79b00;fontFamily=Helvetica;fontSize=12;fontColor=default;startSize=30;" vertex="1" parent="3bujCkTI3dHCWaHLoJvc-194">
          <mxGeometry x="30" width="180" height="30" as="geometry">
            <mxRectangle width="180" height="30" as="alternateBounds" />
          </mxGeometry>
        </mxCell>
        <mxCell id="dtOEaZ7rbLRQVM6c3AeH-49" value="" style="shape=tableRow;horizontal=0;startSize=0;swimlaneHead=0;swimlaneBody=0;fillColor=none;collapsible=0;dropTarget=0;points=[[0,0.5],[1,0.5]];portConstraint=eastwest;top=0;left=0;right=0;bottom=0;strokeColor=#d79b00;fontFamily=Helvetica;fontSize=12;fontColor=default;html=1;" vertex="1" parent="3bujCkTI3dHCWaHLoJvc-103">
          <mxGeometry y="420" width="210" height="30" as="geometry" />
        </mxCell>
        <mxCell id="dtOEaZ7rbLRQVM6c3AeH-50" value="" style="shape=partialRectangle;connectable=0;fillColor=none;top=0;left=0;bottom=0;right=0;editable=1;overflow=hidden;whiteSpace=wrap;html=1;strokeColor=#d79b00;fontFamily=Helvetica;fontSize=12;fontColor=default;startSize=30;" vertex="1" parent="dtOEaZ7rbLRQVM6c3AeH-49">
          <mxGeometry width="30" height="30" as="geometry">
            <mxRectangle width="30" height="30" as="alternateBounds" />
          </mxGeometry>
        </mxCell>
        <mxCell id="dtOEaZ7rbLRQVM6c3AeH-51" value="&lt;font color=&quot;#ff2600&quot;&gt;locations:Object [ ]&lt;/font&gt;" style="shape=partialRectangle;connectable=0;fillColor=none;top=0;left=0;bottom=0;right=0;align=left;spacingLeft=6;overflow=hidden;whiteSpace=wrap;html=1;strokeColor=#d79b00;fontFamily=Helvetica;fontSize=12;fontColor=default;startSize=30;" vertex="1" parent="dtOEaZ7rbLRQVM6c3AeH-49">
          <mxGeometry x="30" width="180" height="30" as="geometry">
            <mxRectangle width="180" height="30" as="alternateBounds" />
          </mxGeometry>
        </mxCell>
        <mxCell id="3bujCkTI3dHCWaHLoJvc-137" value="" style="shape=tableRow;horizontal=0;startSize=0;swimlaneHead=0;swimlaneBody=0;fillColor=none;collapsible=0;dropTarget=0;points=[[0,0.5],[1,0.5]];portConstraint=eastwest;top=0;left=0;right=0;bottom=0;strokeColor=#d79b00;fontFamily=Helvetica;fontSize=12;fontColor=default;html=1;" vertex="1" parent="3bujCkTI3dHCWaHLoJvc-103">
          <mxGeometry y="450" width="210" height="30" as="geometry" />
        </mxCell>
        <mxCell id="3bujCkTI3dHCWaHLoJvc-138" value="" style="shape=partialRectangle;connectable=0;fillColor=none;top=0;left=0;bottom=0;right=0;editable=1;overflow=hidden;whiteSpace=wrap;html=1;strokeColor=#d79b00;fontFamily=Helvetica;fontSize=12;fontColor=default;startSize=30;" vertex="1" parent="3bujCkTI3dHCWaHLoJvc-137">
          <mxGeometry width="30" height="30" as="geometry">
            <mxRectangle width="30" height="30" as="alternateBounds" />
          </mxGeometry>
        </mxCell>
        <mxCell id="3bujCkTI3dHCWaHLoJvc-139" value="loadTypes:Object [ ]" style="shape=partialRectangle;connectable=0;fillColor=none;top=0;left=0;bottom=0;right=0;align=left;spacingLeft=6;overflow=hidden;whiteSpace=wrap;html=1;strokeColor=#d79b00;fontFamily=Helvetica;fontSize=12;fontColor=default;startSize=30;" vertex="1" parent="3bujCkTI3dHCWaHLoJvc-137">
          <mxGeometry x="30" width="180" height="30" as="geometry">
            <mxRectangle width="180" height="30" as="alternateBounds" />
          </mxGeometry>
        </mxCell>
        <mxCell id="3bujCkTI3dHCWaHLoJvc-181" style="edgeStyle=orthogonalEdgeStyle;rounded=0;orthogonalLoop=1;jettySize=auto;html=1;entryX=-0.005;entryY=0.578;entryDx=0;entryDy=0;entryPerimeter=0;endArrow=none;endFill=0;" edge="1" parent="1" source="3bujCkTI3dHCWaHLoJvc-33" target="3bujCkTI3dHCWaHLoJvc-36">
          <mxGeometry relative="1" as="geometry">
            <mxPoint x="-720" y="1105" as="targetPoint" />
            <mxPoint x="-650" y="1010" as="sourcePoint" />
          </mxGeometry>
        </mxCell>
        <mxCell id="3bujCkTI3dHCWaHLoJvc-197" value="transportParty" style="shape=table;startSize=30;container=1;collapsible=1;childLayout=tableLayout;fixedRows=1;rowLines=0;fontStyle=1;align=center;resizeLast=1;html=1;fillColor=#ffe6cc;strokeColor=#d79b00;" vertex="1" parent="1">
          <mxGeometry x="-340" y="470" width="280" height="240" as="geometry" />
        </mxCell>
        <mxCell id="3bujCkTI3dHCWaHLoJvc-198" value="" style="shape=tableRow;horizontal=0;startSize=0;swimlaneHead=0;swimlaneBody=0;fillColor=none;collapsible=0;dropTarget=0;points=[[0,0.5],[1,0.5]];portConstraint=eastwest;top=0;left=0;right=0;bottom=1;" vertex="1" parent="3bujCkTI3dHCWaHLoJvc-197">
          <mxGeometry y="30" width="280" height="30" as="geometry" />
        </mxCell>
        <mxCell id="3bujCkTI3dHCWaHLoJvc-199" value="PK" style="shape=partialRectangle;connectable=0;fillColor=none;top=0;left=0;bottom=0;right=0;fontStyle=1;overflow=hidden;whiteSpace=wrap;html=1;" vertex="1" parent="3bujCkTI3dHCWaHLoJvc-198">
          <mxGeometry width="30" height="30" as="geometry">
            <mxRectangle width="30" height="30" as="alternateBounds" />
          </mxGeometry>
        </mxCell>
        <mxCell id="3bujCkTI3dHCWaHLoJvc-200" value="_cID:string" style="shape=partialRectangle;connectable=0;fillColor=none;top=0;left=0;bottom=0;right=0;align=left;spacingLeft=6;fontStyle=5;overflow=hidden;whiteSpace=wrap;html=1;" vertex="1" parent="3bujCkTI3dHCWaHLoJvc-198">
          <mxGeometry x="30" width="250" height="30" as="geometry">
            <mxRectangle width="250" height="30" as="alternateBounds" />
          </mxGeometry>
        </mxCell>
        <mxCell id="3bujCkTI3dHCWaHLoJvc-201" value="" style="shape=tableRow;horizontal=0;startSize=0;swimlaneHead=0;swimlaneBody=0;fillColor=none;collapsible=0;dropTarget=0;points=[[0,0.5],[1,0.5]];portConstraint=eastwest;top=0;left=0;right=0;bottom=0;" vertex="1" parent="3bujCkTI3dHCWaHLoJvc-197">
          <mxGeometry y="60" width="280" height="30" as="geometry" />
        </mxCell>
        <mxCell id="3bujCkTI3dHCWaHLoJvc-202" value="" style="shape=partialRectangle;connectable=0;fillColor=none;top=0;left=0;bottom=0;right=0;editable=1;overflow=hidden;whiteSpace=wrap;html=1;" vertex="1" parent="3bujCkTI3dHCWaHLoJvc-201">
          <mxGeometry width="30" height="30" as="geometry">
            <mxRectangle width="30" height="30" as="alternateBounds" />
          </mxGeometry>
        </mxCell>
        <mxCell id="3bujCkTI3dHCWaHLoJvc-203" value="name: String" style="shape=partialRectangle;connectable=0;fillColor=none;top=0;left=0;bottom=0;right=0;align=left;spacingLeft=6;overflow=hidden;whiteSpace=wrap;html=1;" vertex="1" parent="3bujCkTI3dHCWaHLoJvc-201">
          <mxGeometry x="30" width="250" height="30" as="geometry">
            <mxRectangle width="250" height="30" as="alternateBounds" />
          </mxGeometry>
        </mxCell>
        <mxCell id="PQ_Kf1jRmfNcbhDUYRIa-15" value="" style="shape=tableRow;horizontal=0;startSize=0;swimlaneHead=0;swimlaneBody=0;fillColor=none;collapsible=0;dropTarget=0;points=[[0,0.5],[1,0.5]];portConstraint=eastwest;top=0;left=0;right=0;bottom=0;" vertex="1" parent="3bujCkTI3dHCWaHLoJvc-197">
          <mxGeometry y="90" width="280" height="30" as="geometry" />
        </mxCell>
        <mxCell id="PQ_Kf1jRmfNcbhDUYRIa-16" value="" style="shape=partialRectangle;connectable=0;fillColor=none;top=0;left=0;bottom=0;right=0;editable=1;overflow=hidden;whiteSpace=wrap;html=1;" vertex="1" parent="PQ_Kf1jRmfNcbhDUYRIa-15">
          <mxGeometry width="30" height="30" as="geometry">
            <mxRectangle width="30" height="30" as="alternateBounds" />
          </mxGeometry>
        </mxCell>
        <mxCell id="PQ_Kf1jRmfNcbhDUYRIa-17" value="picture: String //default NULL" style="shape=partialRectangle;connectable=0;fillColor=none;top=0;left=0;bottom=0;right=0;align=left;spacingLeft=6;overflow=hidden;whiteSpace=wrap;html=1;" vertex="1" parent="PQ_Kf1jRmfNcbhDUYRIa-15">
          <mxGeometry x="30" width="250" height="30" as="geometry">
            <mxRectangle width="250" height="30" as="alternateBounds" />
          </mxGeometry>
        </mxCell>
        <mxCell id="3bujCkTI3dHCWaHLoJvc-204" value="" style="shape=tableRow;horizontal=0;startSize=0;swimlaneHead=0;swimlaneBody=0;fillColor=none;collapsible=0;dropTarget=0;points=[[0,0.5],[1,0.5]];portConstraint=eastwest;top=0;left=0;right=0;bottom=0;" vertex="1" parent="3bujCkTI3dHCWaHLoJvc-197">
          <mxGeometry y="120" width="280" height="30" as="geometry" />
        </mxCell>
        <mxCell id="3bujCkTI3dHCWaHLoJvc-205" value="" style="shape=partialRectangle;connectable=0;fillColor=none;top=0;left=0;bottom=0;right=0;editable=1;overflow=hidden;whiteSpace=wrap;html=1;" vertex="1" parent="3bujCkTI3dHCWaHLoJvc-204">
          <mxGeometry width="30" height="30" as="geometry">
            <mxRectangle width="30" height="30" as="alternateBounds" />
          </mxGeometry>
        </mxCell>
        <mxCell id="3bujCkTI3dHCWaHLoJvc-206" value="phone1:String" style="shape=partialRectangle;connectable=0;fillColor=none;top=0;left=0;bottom=0;right=0;align=left;spacingLeft=6;overflow=hidden;whiteSpace=wrap;html=1;" vertex="1" parent="3bujCkTI3dHCWaHLoJvc-204">
          <mxGeometry x="30" width="250" height="30" as="geometry">
            <mxRectangle width="250" height="30" as="alternateBounds" />
          </mxGeometry>
        </mxCell>
        <mxCell id="PQ_Kf1jRmfNcbhDUYRIa-1" value="" style="shape=tableRow;horizontal=0;startSize=0;swimlaneHead=0;swimlaneBody=0;fillColor=none;collapsible=0;dropTarget=0;points=[[0,0.5],[1,0.5]];portConstraint=eastwest;top=0;left=0;right=0;bottom=0;" vertex="1" parent="3bujCkTI3dHCWaHLoJvc-197">
          <mxGeometry y="150" width="280" height="30" as="geometry" />
        </mxCell>
        <mxCell id="PQ_Kf1jRmfNcbhDUYRIa-2" value="" style="shape=partialRectangle;connectable=0;fillColor=none;top=0;left=0;bottom=0;right=0;editable=1;overflow=hidden;whiteSpace=wrap;html=1;" vertex="1" parent="PQ_Kf1jRmfNcbhDUYRIa-1">
          <mxGeometry width="30" height="30" as="geometry">
            <mxRectangle width="30" height="30" as="alternateBounds" />
          </mxGeometry>
        </mxCell>
        <mxCell id="PQ_Kf1jRmfNcbhDUYRIa-3" value="phone2:String" style="shape=partialRectangle;connectable=0;fillColor=none;top=0;left=0;bottom=0;right=0;align=left;spacingLeft=6;overflow=hidden;whiteSpace=wrap;html=1;" vertex="1" parent="PQ_Kf1jRmfNcbhDUYRIa-1">
          <mxGeometry x="30" width="250" height="30" as="geometry">
            <mxRectangle width="250" height="30" as="alternateBounds" />
          </mxGeometry>
        </mxCell>
        <mxCell id="PQ_Kf1jRmfNcbhDUYRIa-4" value="" style="shape=tableRow;horizontal=0;startSize=0;swimlaneHead=0;swimlaneBody=0;fillColor=none;collapsible=0;dropTarget=0;points=[[0,0.5],[1,0.5]];portConstraint=eastwest;top=0;left=0;right=0;bottom=0;" vertex="1" parent="3bujCkTI3dHCWaHLoJvc-197">
          <mxGeometry y="180" width="280" height="30" as="geometry" />
        </mxCell>
        <mxCell id="PQ_Kf1jRmfNcbhDUYRIa-5" value="" style="shape=partialRectangle;connectable=0;fillColor=none;top=0;left=0;bottom=0;right=0;editable=1;overflow=hidden;whiteSpace=wrap;html=1;" vertex="1" parent="PQ_Kf1jRmfNcbhDUYRIa-4">
          <mxGeometry width="30" height="30" as="geometry">
            <mxRectangle width="30" height="30" as="alternateBounds" />
          </mxGeometry>
        </mxCell>
        <mxCell id="PQ_Kf1jRmfNcbhDUYRIa-6" value="adress:Object (street:string, district:string,city:string,neighbourhood:string&lt;span style=&quot;background-color: initial;&quot;&gt;)&lt;/span&gt;" style="shape=partialRectangle;connectable=0;fillColor=none;top=0;left=0;bottom=0;right=0;align=left;spacingLeft=6;overflow=hidden;whiteSpace=wrap;html=1;" vertex="1" parent="PQ_Kf1jRmfNcbhDUYRIa-4">
          <mxGeometry x="30" width="250" height="30" as="geometry">
            <mxRectangle width="250" height="30" as="alternateBounds" />
          </mxGeometry>
        </mxCell>
        <mxCell id="3bujCkTI3dHCWaHLoJvc-207" value="" style="shape=tableRow;horizontal=0;startSize=0;swimlaneHead=0;swimlaneBody=0;fillColor=none;collapsible=0;dropTarget=0;points=[[0,0.5],[1,0.5]];portConstraint=eastwest;top=0;left=0;right=0;bottom=0;" vertex="1" parent="3bujCkTI3dHCWaHLoJvc-197">
          <mxGeometry y="210" width="280" height="30" as="geometry" />
        </mxCell>
        <mxCell id="3bujCkTI3dHCWaHLoJvc-208" value="" style="shape=partialRectangle;connectable=0;fillColor=none;top=0;left=0;bottom=0;right=0;editable=1;overflow=hidden;whiteSpace=wrap;html=1;" vertex="1" parent="3bujCkTI3dHCWaHLoJvc-207">
          <mxGeometry width="30" height="30" as="geometry">
            <mxRectangle width="30" height="30" as="alternateBounds" />
          </mxGeometry>
        </mxCell>
        <mxCell id="3bujCkTI3dHCWaHLoJvc-209" value="location:(lat:double,log:double)" style="shape=partialRectangle;connectable=0;fillColor=none;top=0;left=0;bottom=0;right=0;align=left;spacingLeft=6;overflow=hidden;whiteSpace=wrap;html=1;" vertex="1" parent="3bujCkTI3dHCWaHLoJvc-207">
          <mxGeometry x="30" width="250" height="30" as="geometry">
            <mxRectangle width="250" height="30" as="alternateBounds" />
          </mxGeometry>
        </mxCell>
        <mxCell id="0d2i7ZcnWRZ4m1nRk_Io-7" style="edgeStyle=orthogonalEdgeStyle;rounded=0;orthogonalLoop=1;jettySize=auto;html=1;entryX=1;entryY=0.042;entryDx=0;entryDy=0;entryPerimeter=0;" edge="1" parent="1" source="3bujCkTI3dHCWaHLoJvc-93" target="o50DH5vK2s1su8xFmBfq-40">
          <mxGeometry relative="1" as="geometry" />
        </mxCell>
        <mxCell id="0d2i7ZcnWRZ4m1nRk_Io-8" style="edgeStyle=orthogonalEdgeStyle;rounded=0;orthogonalLoop=1;jettySize=auto;html=1;entryX=-0.014;entryY=0.062;entryDx=0;entryDy=0;entryPerimeter=0;" edge="1" parent="1" source="o50DH5vK2s1su8xFmBfq-50" target="3bujCkTI3dHCWaHLoJvc-103">
          <mxGeometry relative="1" as="geometry" />
        </mxCell>
        <mxCell id="J0R7kB1mFaKwn7ts1AGc-7" value="&lt;div align=&quot;left&quot;&gt;//freights::states info&lt;/div&gt;&lt;div align=&quot;left&quot;&gt;state:string&lt;/div&gt;&lt;div align=&quot;left&quot;&gt;sDate:date&lt;/div&gt;&lt;div align=&quot;left&quot;&gt;info:Object //location for on Route&lt;/div&gt;" style="shape=note;size=20;whiteSpace=wrap;html=1;strokeColor=#d79b00;fontFamily=Helvetica;fontSize=12;fontColor=default;startSize=30;fillColor=#ffe6cc;align=left;" vertex="1" parent="1">
          <mxGeometry x="-1015" y="560" width="190" height="90" as="geometry" />
        </mxCell>
        <mxCell id="J0R7kB1mFaKwn7ts1AGc-9" value="" style="endArrow=none;html=1;rounded=0;exitX=0;exitY=0.5;exitDx=0;exitDy=0;endFill=0;" edge="1" parent="1" source="nlUxa3fVQoRvI8ThVAe_-1" target="J0R7kB1mFaKwn7ts1AGc-7">
          <mxGeometry width="50" height="50" relative="1" as="geometry">
            <mxPoint x="-630" y="450" as="sourcePoint" />
            <mxPoint x="-580" y="400" as="targetPoint" />
          </mxGeometry>
        </mxCell>
        <mxCell id="PQ_Kf1jRmfNcbhDUYRIa-13" style="edgeStyle=orthogonalEdgeStyle;rounded=0;orthogonalLoop=1;jettySize=auto;html=1;entryX=0;entryY=0.067;entryDx=0;entryDy=0;entryPerimeter=0;endArrow=none;endFill=0;" edge="1" parent="1" source="3bujCkTI3dHCWaHLoJvc-63" target="3bujCkTI3dHCWaHLoJvc-197">
          <mxGeometry relative="1" as="geometry" />
        </mxCell>
        <mxCell id="PQ_Kf1jRmfNcbhDUYRIa-14" style="edgeStyle=orthogonalEdgeStyle;rounded=0;orthogonalLoop=1;jettySize=auto;html=1;entryX=-0.004;entryY=0.076;entryDx=0;entryDy=0;entryPerimeter=0;endArrow=none;endFill=0;" edge="1" parent="1" source="0d2i7ZcnWRZ4m1nRk_Io-4" target="3bujCkTI3dHCWaHLoJvc-197">
          <mxGeometry relative="1" as="geometry" />
        </mxCell>
        <mxCell id="tUzu5VWQbiSE0bVqsNUQ-15" value="Customers" style="shape=table;startSize=30;container=1;collapsible=1;childLayout=tableLayout;fixedRows=1;rowLines=0;fontStyle=1;align=center;resizeLast=1;html=1;fillColor=#ffe6cc;strokeColor=#d79b00;" vertex="1" parent="1">
          <mxGeometry x="-340" y="10" width="260" height="396" as="geometry" />
        </mxCell>
        <mxCell id="tUzu5VWQbiSE0bVqsNUQ-16" value="" style="shape=tableRow;horizontal=0;startSize=0;swimlaneHead=0;swimlaneBody=0;fillColor=none;collapsible=0;dropTarget=0;points=[[0,0.5],[1,0.5]];portConstraint=eastwest;top=0;left=0;right=0;bottom=1;" vertex="1" parent="tUzu5VWQbiSE0bVqsNUQ-15">
          <mxGeometry y="30" width="260" height="30" as="geometry" />
        </mxCell>
        <mxCell id="tUzu5VWQbiSE0bVqsNUQ-17" value="PK" style="shape=partialRectangle;connectable=0;fillColor=none;top=0;left=0;bottom=0;right=0;fontStyle=1;overflow=hidden;whiteSpace=wrap;html=1;" vertex="1" parent="tUzu5VWQbiSE0bVqsNUQ-16">
          <mxGeometry width="30" height="30" as="geometry">
            <mxRectangle width="30" height="30" as="alternateBounds" />
          </mxGeometry>
        </mxCell>
        <mxCell id="tUzu5VWQbiSE0bVqsNUQ-18" value="_cID:string" style="shape=partialRectangle;connectable=0;fillColor=none;top=0;left=0;bottom=0;right=0;align=left;spacingLeft=6;fontStyle=5;overflow=hidden;whiteSpace=wrap;html=1;" vertex="1" parent="tUzu5VWQbiSE0bVqsNUQ-16">
          <mxGeometry x="30" width="230" height="30" as="geometry">
            <mxRectangle width="230" height="30" as="alternateBounds" />
          </mxGeometry>
        </mxCell>
        <mxCell id="tUzu5VWQbiSE0bVqsNUQ-19" value="" style="shape=tableRow;horizontal=0;startSize=0;swimlaneHead=0;swimlaneBody=0;fillColor=none;collapsible=0;dropTarget=0;points=[[0,0.5],[1,0.5]];portConstraint=eastwest;top=0;left=0;right=0;bottom=0;" vertex="1" parent="tUzu5VWQbiSE0bVqsNUQ-15">
          <mxGeometry y="60" width="260" height="30" as="geometry" />
        </mxCell>
        <mxCell id="tUzu5VWQbiSE0bVqsNUQ-20" value="" style="shape=partialRectangle;connectable=0;top=0;left=0;bottom=0;right=0;editable=1;overflow=hidden;whiteSpace=wrap;html=1;fillColor=none;" vertex="1" parent="tUzu5VWQbiSE0bVqsNUQ-19">
          <mxGeometry width="30" height="30" as="geometry">
            <mxRectangle width="30" height="30" as="alternateBounds" />
          </mxGeometry>
        </mxCell>
        <mxCell id="tUzu5VWQbiSE0bVqsNUQ-21" value="companyName: string NOT NULL" style="shape=partialRectangle;connectable=0;top=0;left=0;bottom=0;right=0;align=left;spacingLeft=6;overflow=hidden;whiteSpace=wrap;html=1;fillColor=none;" vertex="1" parent="tUzu5VWQbiSE0bVqsNUQ-19">
          <mxGeometry x="30" width="230" height="30" as="geometry">
            <mxRectangle width="230" height="30" as="alternateBounds" />
          </mxGeometry>
        </mxCell>
        <mxCell id="tUzu5VWQbiSE0bVqsNUQ-25" value="" style="shape=tableRow;horizontal=0;startSize=0;swimlaneHead=0;swimlaneBody=0;fillColor=none;collapsible=0;dropTarget=0;points=[[0,0.5],[1,0.5]];portConstraint=eastwest;top=0;left=0;right=0;bottom=0;strokeColor=#6c8ebf;fontSize=12;" vertex="1" parent="tUzu5VWQbiSE0bVqsNUQ-15">
          <mxGeometry y="90" width="260" height="36" as="geometry" />
        </mxCell>
        <mxCell id="tUzu5VWQbiSE0bVqsNUQ-26" value="" style="shape=partialRectangle;connectable=0;top=0;left=0;bottom=0;right=0;editable=1;overflow=hidden;whiteSpace=wrap;html=1;fillColor=none;labelBackgroundColor=none;" vertex="1" parent="tUzu5VWQbiSE0bVqsNUQ-25">
          <mxGeometry width="30" height="36" as="geometry">
            <mxRectangle width="30" height="36" as="alternateBounds" />
          </mxGeometry>
        </mxCell>
        <mxCell id="tUzu5VWQbiSE0bVqsNUQ-27" value="contactPerson:Object //Name, phone, picture" style="shape=partialRectangle;connectable=0;top=0;left=0;bottom=0;right=0;align=left;spacingLeft=6;overflow=hidden;whiteSpace=wrap;html=1;fillColor=none;labelBackgroundColor=none;fontColor=default;" vertex="1" parent="tUzu5VWQbiSE0bVqsNUQ-25">
          <mxGeometry x="30" width="230" height="36" as="geometry">
            <mxRectangle width="230" height="36" as="alternateBounds" />
          </mxGeometry>
        </mxCell>
        <mxCell id="dtOEaZ7rbLRQVM6c3AeH-24" value="" style="shape=tableRow;horizontal=0;startSize=0;swimlaneHead=0;swimlaneBody=0;fillColor=none;collapsible=0;dropTarget=0;points=[[0,0.5],[1,0.5]];portConstraint=eastwest;top=0;left=0;right=0;bottom=0;" vertex="1" parent="tUzu5VWQbiSE0bVqsNUQ-15">
          <mxGeometry y="126" width="260" height="30" as="geometry" />
        </mxCell>
        <mxCell id="dtOEaZ7rbLRQVM6c3AeH-25" value="&lt;br/&gt;" style="shape=partialRectangle;connectable=0;fillColor=none;top=0;left=0;bottom=0;right=0;editable=1;overflow=hidden;whiteSpace=wrap;html=1;" vertex="1" parent="dtOEaZ7rbLRQVM6c3AeH-24">
          <mxGeometry width="30" height="30" as="geometry">
            <mxRectangle width="30" height="30" as="alternateBounds" />
          </mxGeometry>
        </mxCell>
        <mxCell id="dtOEaZ7rbLRQVM6c3AeH-26" value="phone:string" style="shape=partialRectangle;connectable=0;top=0;left=0;bottom=0;right=0;align=left;spacingLeft=6;overflow=hidden;whiteSpace=wrap;html=1;fillColor=none;" vertex="1" parent="dtOEaZ7rbLRQVM6c3AeH-24">
          <mxGeometry x="30" width="230" height="30" as="geometry">
            <mxRectangle width="230" height="30" as="alternateBounds" />
          </mxGeometry>
        </mxCell>
        <mxCell id="tUzu5VWQbiSE0bVqsNUQ-28" value="" style="shape=tableRow;horizontal=0;startSize=0;swimlaneHead=0;swimlaneBody=0;fillColor=none;collapsible=0;dropTarget=0;points=[[0,0.5],[1,0.5]];portConstraint=eastwest;top=0;left=0;right=0;bottom=0;strokeColor=#6c8ebf;" vertex="1" parent="tUzu5VWQbiSE0bVqsNUQ-15">
          <mxGeometry y="156" width="260" height="30" as="geometry" />
        </mxCell>
        <mxCell id="tUzu5VWQbiSE0bVqsNUQ-29" value="" style="shape=partialRectangle;connectable=0;top=0;left=0;bottom=0;right=0;editable=1;overflow=hidden;whiteSpace=wrap;html=1;fillColor=none;strokeColor=default;" vertex="1" parent="tUzu5VWQbiSE0bVqsNUQ-28">
          <mxGeometry width="30" height="30" as="geometry">
            <mxRectangle width="30" height="30" as="alternateBounds" />
          </mxGeometry>
        </mxCell>
        <mxCell id="tUzu5VWQbiSE0bVqsNUQ-30" value="photo:string" style="shape=partialRectangle;connectable=0;top=0;left=0;bottom=0;right=0;align=left;spacingLeft=6;overflow=hidden;whiteSpace=wrap;html=1;fillColor=none;" vertex="1" parent="tUzu5VWQbiSE0bVqsNUQ-28">
          <mxGeometry x="30" width="230" height="30" as="geometry">
            <mxRectangle width="230" height="30" as="alternateBounds" />
          </mxGeometry>
        </mxCell>
        <mxCell id="tUzu5VWQbiSE0bVqsNUQ-31" value="" style="shape=tableRow;horizontal=0;startSize=0;swimlaneHead=0;swimlaneBody=0;fillColor=none;collapsible=0;dropTarget=0;points=[[0,0.5],[1,0.5]];portConstraint=eastwest;top=0;left=0;right=0;bottom=0;strokeColor=#6c8ebf;" vertex="1" parent="tUzu5VWQbiSE0bVqsNUQ-15">
          <mxGeometry y="186" width="260" height="30" as="geometry" />
        </mxCell>
        <mxCell id="tUzu5VWQbiSE0bVqsNUQ-32" value="" style="shape=partialRectangle;connectable=0;top=0;left=0;bottom=0;right=0;editable=1;overflow=hidden;whiteSpace=wrap;html=1;fillColor=none;" vertex="1" parent="tUzu5VWQbiSE0bVqsNUQ-31">
          <mxGeometry width="30" height="30" as="geometry">
            <mxRectangle width="30" height="30" as="alternateBounds" />
          </mxGeometry>
        </mxCell>
        <mxCell id="tUzu5VWQbiSE0bVqsNUQ-33" value="address:string" style="shape=partialRectangle;connectable=0;top=0;left=0;bottom=0;right=0;align=left;spacingLeft=6;overflow=hidden;whiteSpace=wrap;html=1;fillColor=none;" vertex="1" parent="tUzu5VWQbiSE0bVqsNUQ-31">
          <mxGeometry x="30" width="230" height="30" as="geometry">
            <mxRectangle width="230" height="30" as="alternateBounds" />
          </mxGeometry>
        </mxCell>
        <mxCell id="tUzu5VWQbiSE0bVqsNUQ-34" value="" style="shape=tableRow;horizontal=0;startSize=0;swimlaneHead=0;swimlaneBody=0;fillColor=none;collapsible=0;dropTarget=0;points=[[0,0.5],[1,0.5]];portConstraint=eastwest;top=0;left=0;right=0;bottom=0;strokeColor=#6c8ebf;" vertex="1" parent="tUzu5VWQbiSE0bVqsNUQ-15">
          <mxGeometry y="216" width="260" height="30" as="geometry" />
        </mxCell>
        <mxCell id="tUzu5VWQbiSE0bVqsNUQ-35" value="" style="shape=partialRectangle;connectable=0;top=0;left=0;bottom=0;right=0;editable=1;overflow=hidden;whiteSpace=wrap;html=1;fillColor=none;" vertex="1" parent="tUzu5VWQbiSE0bVqsNUQ-34">
          <mxGeometry width="30" height="30" as="geometry">
            <mxRectangle width="30" height="30" as="alternateBounds" />
          </mxGeometry>
        </mxCell>
        <mxCell id="tUzu5VWQbiSE0bVqsNUQ-36" value="province:string" style="shape=partialRectangle;connectable=0;top=0;left=0;bottom=0;right=0;align=left;spacingLeft=6;overflow=hidden;whiteSpace=wrap;html=1;fillColor=none;" vertex="1" parent="tUzu5VWQbiSE0bVqsNUQ-34">
          <mxGeometry x="30" width="230" height="30" as="geometry">
            <mxRectangle width="230" height="30" as="alternateBounds" />
          </mxGeometry>
        </mxCell>
        <mxCell id="tUzu5VWQbiSE0bVqsNUQ-37" value="" style="shape=tableRow;horizontal=0;startSize=0;swimlaneHead=0;swimlaneBody=0;fillColor=none;collapsible=0;dropTarget=0;points=[[0,0.5],[1,0.5]];portConstraint=eastwest;top=0;left=0;right=0;bottom=0;strokeColor=#6c8ebf;" vertex="1" parent="tUzu5VWQbiSE0bVqsNUQ-15">
          <mxGeometry y="246" width="260" height="30" as="geometry" />
        </mxCell>
        <mxCell id="tUzu5VWQbiSE0bVqsNUQ-38" value="" style="shape=partialRectangle;connectable=0;top=0;left=0;bottom=0;right=0;editable=1;overflow=hidden;whiteSpace=wrap;html=1;fillColor=none;" vertex="1" parent="tUzu5VWQbiSE0bVqsNUQ-37">
          <mxGeometry width="30" height="30" as="geometry">
            <mxRectangle width="30" height="30" as="alternateBounds" />
          </mxGeometry>
        </mxCell>
        <mxCell id="tUzu5VWQbiSE0bVqsNUQ-39" value="city:string" style="shape=partialRectangle;connectable=0;top=0;left=0;bottom=0;right=0;align=left;spacingLeft=6;overflow=hidden;whiteSpace=wrap;html=1;fillColor=none;" vertex="1" parent="tUzu5VWQbiSE0bVqsNUQ-37">
          <mxGeometry x="30" width="230" height="30" as="geometry">
            <mxRectangle width="230" height="30" as="alternateBounds" />
          </mxGeometry>
        </mxCell>
        <mxCell id="tUzu5VWQbiSE0bVqsNUQ-40" value="" style="shape=tableRow;horizontal=0;startSize=0;swimlaneHead=0;swimlaneBody=0;fillColor=none;collapsible=0;dropTarget=0;points=[[0,0.5],[1,0.5]];portConstraint=eastwest;top=0;left=0;right=0;bottom=0;" vertex="1" parent="tUzu5VWQbiSE0bVqsNUQ-15">
          <mxGeometry y="276" width="260" height="30" as="geometry" />
        </mxCell>
        <mxCell id="tUzu5VWQbiSE0bVqsNUQ-41" value="&lt;br/&gt;" style="shape=partialRectangle;connectable=0;top=0;left=0;bottom=0;right=0;editable=1;overflow=hidden;whiteSpace=wrap;html=1;fillColor=none;" vertex="1" parent="tUzu5VWQbiSE0bVqsNUQ-40">
          <mxGeometry width="30" height="30" as="geometry">
            <mxRectangle width="30" height="30" as="alternateBounds" />
          </mxGeometry>
        </mxCell>
        <mxCell id="tUzu5VWQbiSE0bVqsNUQ-42" value="&lt;font color=&quot;#ff0000&quot;&gt;taxInfo: (taxOffice:string, taxID:string)&lt;/font&gt;" style="shape=partialRectangle;connectable=0;top=0;left=0;bottom=0;right=0;align=left;spacingLeft=6;overflow=hidden;whiteSpace=wrap;html=1;fillColor=none;" vertex="1" parent="tUzu5VWQbiSE0bVqsNUQ-40">
          <mxGeometry x="30" width="230" height="30" as="geometry">
            <mxRectangle width="230" height="30" as="alternateBounds" />
          </mxGeometry>
        </mxCell>
        <mxCell id="dtOEaZ7rbLRQVM6c3AeH-18" value="" style="shape=tableRow;horizontal=0;startSize=0;swimlaneHead=0;swimlaneBody=0;fillColor=none;collapsible=0;dropTarget=0;points=[[0,0.5],[1,0.5]];portConstraint=eastwest;top=0;left=0;right=0;bottom=0;" vertex="1" parent="tUzu5VWQbiSE0bVqsNUQ-15">
          <mxGeometry y="306" width="260" height="30" as="geometry" />
        </mxCell>
        <mxCell id="dtOEaZ7rbLRQVM6c3AeH-19" value="&lt;br/&gt;" style="shape=partialRectangle;connectable=0;fillColor=none;top=0;left=0;bottom=0;right=0;editable=1;overflow=hidden;whiteSpace=wrap;html=1;" vertex="1" parent="dtOEaZ7rbLRQVM6c3AeH-18">
          <mxGeometry width="30" height="30" as="geometry">
            <mxRectangle width="30" height="30" as="alternateBounds" />
          </mxGeometry>
        </mxCell>
        <mxCell id="dtOEaZ7rbLRQVM6c3AeH-20" value="email:string" style="shape=partialRectangle;connectable=0;top=0;left=0;bottom=0;right=0;align=left;spacingLeft=6;overflow=hidden;whiteSpace=wrap;html=1;fillColor=none;" vertex="1" parent="dtOEaZ7rbLRQVM6c3AeH-18">
          <mxGeometry x="30" width="230" height="30" as="geometry">
            <mxRectangle width="230" height="30" as="alternateBounds" />
          </mxGeometry>
        </mxCell>
        <mxCell id="dtOEaZ7rbLRQVM6c3AeH-21" value="" style="shape=tableRow;horizontal=0;startSize=0;swimlaneHead=0;swimlaneBody=0;fillColor=none;collapsible=0;dropTarget=0;points=[[0,0.5],[1,0.5]];portConstraint=eastwest;top=0;left=0;right=0;bottom=0;" vertex="1" parent="tUzu5VWQbiSE0bVqsNUQ-15">
          <mxGeometry y="336" width="260" height="30" as="geometry" />
        </mxCell>
        <mxCell id="dtOEaZ7rbLRQVM6c3AeH-22" value="&lt;br/&gt;" style="shape=partialRectangle;connectable=0;fillColor=none;top=0;left=0;bottom=0;right=0;editable=1;overflow=hidden;whiteSpace=wrap;html=1;" vertex="1" parent="dtOEaZ7rbLRQVM6c3AeH-21">
          <mxGeometry width="30" height="30" as="geometry">
            <mxRectangle width="30" height="30" as="alternateBounds" />
          </mxGeometry>
        </mxCell>
        <mxCell id="dtOEaZ7rbLRQVM6c3AeH-23" value="&lt;font color=&quot;#ff0000&quot;&gt;documents: (string,string) [ ]&lt;/font&gt;" style="shape=partialRectangle;connectable=0;top=0;left=0;bottom=0;right=0;align=left;spacingLeft=6;overflow=hidden;whiteSpace=wrap;html=1;fillColor=none;" vertex="1" parent="dtOEaZ7rbLRQVM6c3AeH-21">
          <mxGeometry x="30" width="230" height="30" as="geometry">
            <mxRectangle width="230" height="30" as="alternateBounds" />
          </mxGeometry>
        </mxCell>
        <mxCell id="dtOEaZ7rbLRQVM6c3AeH-29" value="" style="shape=tableRow;horizontal=0;startSize=0;swimlaneHead=0;swimlaneBody=0;fillColor=none;collapsible=0;dropTarget=0;points=[[0,0.5],[1,0.5]];portConstraint=eastwest;top=0;left=0;right=0;bottom=0;" vertex="1" parent="tUzu5VWQbiSE0bVqsNUQ-15">
          <mxGeometry y="366" width="260" height="30" as="geometry" />
        </mxCell>
        <mxCell id="dtOEaZ7rbLRQVM6c3AeH-30" value="&lt;br/&gt;" style="shape=partialRectangle;connectable=0;fillColor=none;top=0;left=0;bottom=0;right=0;editable=1;overflow=hidden;whiteSpace=wrap;html=1;" vertex="1" parent="dtOEaZ7rbLRQVM6c3AeH-29">
          <mxGeometry width="30" height="30" as="geometry">
            <mxRectangle width="30" height="30" as="alternateBounds" />
          </mxGeometry>
        </mxCell>
        <mxCell id="dtOEaZ7rbLRQVM6c3AeH-31" value="freights: string [ ] //" style="shape=partialRectangle;connectable=0;top=0;left=0;bottom=0;right=0;align=left;spacingLeft=6;overflow=hidden;whiteSpace=wrap;html=1;fillColor=none;" vertex="1" parent="dtOEaZ7rbLRQVM6c3AeH-29">
          <mxGeometry x="30" width="230" height="30" as="geometry">
            <mxRectangle width="230" height="30" as="alternateBounds" />
          </mxGeometry>
        </mxCell>
        <mxCell id="dtOEaZ7rbLRQVM6c3AeH-1" style="edgeStyle=orthogonalEdgeStyle;rounded=0;orthogonalLoop=1;jettySize=auto;html=1;entryX=0;entryY=0.5;entryDx=0;entryDy=0;" edge="1" parent="1" source="3bujCkTI3dHCWaHLoJvc-96" target="tUzu5VWQbiSE0bVqsNUQ-28">
          <mxGeometry relative="1" as="geometry" />
        </mxCell>
        <mxCell id="dtOEaZ7rbLRQVM6c3AeH-42" style="edgeStyle=orthogonalEdgeStyle;rounded=0;orthogonalLoop=1;jettySize=auto;html=1;entryX=1;entryY=0.5;entryDx=0;entryDy=0;" edge="1" parent="1" source="dtOEaZ7rbLRQVM6c3AeH-39" target="o50DH5vK2s1su8xFmBfq-41">
          <mxGeometry relative="1" as="geometry" />
        </mxCell>
        <mxCell id="dtOEaZ7rbLRQVM6c3AeH-54" value="//&amp;nbsp; location info:&lt;br&gt;&lt;div&gt;latitude:double&lt;/div&gt;&lt;div&gt;longitude:double&lt;/div&gt;&lt;div&gt;date:Date&lt;br&gt;&lt;/div&gt;" style="shape=note;size=20;whiteSpace=wrap;html=1;strokeColor=#d79b00;fontFamily=Helvetica;fontSize=12;fontColor=default;startSize=30;fillColor=#ffe6cc;gradientColor=none;align=left;" vertex="1" parent="1">
          <mxGeometry x="-610" y="928.5" width="130" height="83" as="geometry" />
        </mxCell>
        <mxCell id="dtOEaZ7rbLRQVM6c3AeH-55" style="edgeStyle=orthogonalEdgeStyle;rounded=0;orthogonalLoop=1;jettySize=auto;html=1;entryX=0;entryY=0;entryDx=130;entryDy=51.5;entryPerimeter=0;fontFamily=Helvetica;fontSize=12;fontColor=default;startSize=30;endArrow=none;endFill=0;" edge="1" parent="1" source="dtOEaZ7rbLRQVM6c3AeH-49" target="dtOEaZ7rbLRQVM6c3AeH-54">
          <mxGeometry relative="1" as="geometry" />
        </mxCell>
        <mxCell id="dtOEaZ7rbLRQVM6c3AeH-56" value="&lt;div&gt;//agent registration:&lt;/div&gt;&lt;div&gt;agentID: string&lt;/div&gt;&lt;div&gt;carrierID:string&lt;/div&gt;&lt;div&gt;code: string&lt;br&gt;&lt;/div&gt;&lt;div&gt;requestState:String&lt;/div&gt;&lt;div&gt;verifiedDate: double&lt;/div&gt;&lt;div&gt;expireDate: dobule&lt;br&gt;&lt;/div&gt;" style="shape=note;size=20;whiteSpace=wrap;html=1;strokeColor=#d79b00;fontFamily=Helvetica;fontSize=12;fontColor=default;startSize=30;fillColor=#ffe6cc;align=left;" vertex="1" parent="1">
          <mxGeometry x="-1160" y="960" width="130" height="100" as="geometry" />
        </mxCell>
        <mxCell id="dtOEaZ7rbLRQVM6c3AeH-57" style="edgeStyle=orthogonalEdgeStyle;rounded=0;orthogonalLoop=1;jettySize=auto;html=1;entryX=0.5;entryY=0;entryDx=0;entryDy=0;entryPerimeter=0;fontFamily=Helvetica;fontSize=12;fontColor=default;startSize=30;endArrow=none;endFill=0;" edge="1" parent="1" source="J0R7kB1mFaKwn7ts1AGc-1" target="dtOEaZ7rbLRQVM6c3AeH-56">
          <mxGeometry relative="1" as="geometry" />
        </mxCell>
        <mxCell id="dtOEaZ7rbLRQVM6c3AeH-58" style="edgeStyle=orthogonalEdgeStyle;rounded=0;orthogonalLoop=1;jettySize=auto;html=1;entryX=0;entryY=0.5;entryDx=0;entryDy=0;entryPerimeter=0;fontFamily=Helvetica;fontSize=12;fontColor=default;startSize=30;endArrow=none;endFill=0;" edge="1" parent="1" source="3bujCkTI3dHCWaHLoJvc-30" target="dtOEaZ7rbLRQVM6c3AeH-54">
          <mxGeometry relative="1" as="geometry" />
        </mxCell>
        <mxCell id="dtOEaZ7rbLRQVM6c3AeH-65" value="SYSTEM SETTINGS:&lt;br&gt;&lt;div&gt;loadTypes: string [ ]&lt;/div&gt;&lt;div&gt;freightStates: string [ ]&lt;br&gt;&lt;/div&gt;" style="shape=note;size=20;whiteSpace=wrap;html=1;strokeColor=#d79b00;fontFamily=Helvetica;fontSize=12;fontColor=default;startSize=30;fillColor=#ffe6cc;align=left;" vertex="1" parent="1">
          <mxGeometry x="-710" y="1280" width="220" height="100" as="geometry" />
        </mxCell>
      </root>
    </mxGraphModel>
  </diagram>
</mxfile>
